<svg xmlns="http://www.w3.org/2000/svg" width="1200" height="630" viewBox="0 0 1200 630">
  <defs>
    <linearGradient id="bg" x1="0%" y1="0%" x2="100%" y2="100%">
      <stop offset="0%" stop-color="#1e3a5f"/>
      <stop offset="50%" stop-color="#2563eb"/>
      <stop offset="100%" stop-color="#60a5fa"/>
    </linearGradient>
    <radialGradient id="glow" cx="30%" cy="40%" r="70%">
      <stop offset="0%" stop-color="white" stop-opacity="0.08"/>
      <stop offset="100%" stop-color="white" stop-opacity="0"/>
    </radialGradient>
    <linearGradient id="bottom-fade" x1="0%" y1="0%" x2="0%" y2="100%">
      <stop offset="0%" stop-color="#1e3a5f" stop-opacity="0"/>
      <stop offset="100%" stop-color="#1e3a5f" stop-opacity="0.7"/>
    </linearGradient>
  </defs>

  <rect width="1200" height="630" rx="16" fill="url(#bg)"/>
  <rect width="1200" height="630" rx="16" fill="url(#glow)"/>

  <!-- Grid -->
  <g opacity="0.025">
    <line x1="0" y1="0" x2="0" y2="630" stroke="white" stroke-width="1"/><line x1="80" y1="0" x2="80" y2="630" stroke="white" stroke-width="1"/><line x1="160" y1="0" x2="160" y2="630" stroke="white" stroke-width="1"/><line x1="240" y1="0" x2="240" y2="630" stroke="white" stroke-width="1"/><line x1="320" y1="0" x2="320" y2="630" stroke="white" stroke-width="1"/><line x1="400" y1="0" x2="400" y2="630" stroke="white" stroke-width="1"/><line x1="480" y1="0" x2="480" y2="630" stroke="white" stroke-width="1"/><line x1="560" y1="0" x2="560" y2="630" stroke="white" stroke-width="1"/><line x1="640" y1="0" x2="640" y2="630" stroke="white" stroke-width="1"/><line x1="720" y1="0" x2="720" y2="630" stroke="white" stroke-width="1"/><line x1="800" y1="0" x2="800" y2="630" stroke="white" stroke-width="1"/><line x1="880" y1="0" x2="880" y2="630" stroke="white" stroke-width="1"/><line x1="960" y1="0" x2="960" y2="630" stroke="white" stroke-width="1"/><line x1="1040" y1="0" x2="1040" y2="630" stroke="white" stroke-width="1"/><line x1="1120" y1="0" x2="1120" y2="630" stroke="white" stroke-width="1"/>
    <line x1="0" y1="0" x2="1200" y2="0" stroke="white" stroke-width="1"/><line x1="0" y1="80" x2="1200" y2="80" stroke="white" stroke-width="1"/><line x1="0" y1="160" x2="1200" y2="160" stroke="white" stroke-width="1"/><line x1="0" y1="240" x2="1200" y2="240" stroke="white" stroke-width="1"/><line x1="0" y1="320" x2="1200" y2="320" stroke="white" stroke-width="1"/><line x1="0" y1="400" x2="1200" y2="400" stroke="white" stroke-width="1"/><line x1="0" y1="480" x2="1200" y2="480" stroke="white" stroke-width="1"/><line x1="0" y1="560" x2="1200" y2="560" stroke="white" stroke-width="1"/>
  </g>

  <!-- Decorative -->
  <g>
    <circle cx="768" cy="409" r="43" fill="none" stroke="white" stroke-width="2" opacity="0.08"/>
    <circle cx="938" cy="275" r="62" fill="none" stroke="white" stroke-width="2" opacity="0.09"/>
    <circle cx="778" cy="168" r="79" fill="none" stroke="white" stroke-width="2" opacity="0.05"/>
    <rect x="633" y="107" width="95" height="81" rx="4" fill="none" stroke="white" stroke-width="1.5" opacity="0.03" transform="rotate(37, 680, 147)"/>
    <rect x="629" y="221" width="85" height="101" rx="4" fill="none" stroke="white" stroke-width="1.5" opacity="0.05" transform="rotate(2, 671, 271)"/>
    <circle cx="1026" cy="144" r="2" fill="white" opacity="0.05"/>
    <circle cx="616" cy="474" r="4" fill="white" opacity="0.05"/>
    <circle cx="723" cy="212" r="4" fill="white" opacity="0.05"/>
    <circle cx="620" cy="290" r="4" fill="white" opacity="0.05"/>
    <circle cx="617" cy="274" r="4" fill="white" opacity="0.05"/>
    <circle cx="1050" cy="450" r="2" fill="white" opacity="0.05"/>
    <circle cx="272" cy="110" r="3" fill="white" opacity="0.05"/>
    <circle cx="1035" cy="382" r="4" fill="white" opacity="0.05"/>
    <line x1="989" y1="128" x2="1138" y2="277" stroke="white" stroke-width="1" opacity="0.06"/>
    <line x1="652" y1="149" x2="842" y2="339" stroke="white" stroke-width="1" opacity="0.03"/>
    <path d="M834 242 Q934 162 1034 262 Q1134 362 984 422" fill="none" stroke="white" stroke-width="1.5" opacity="0.04"/>
  </g>

  <!-- Bottom fade -->
  <rect y="410" width="1200" height="220" fill="url(#bottom-fade)"/>

  <!-- Badge -->
  <g transform="translate(60, 50)">
    <rect width="120" height="32" rx="16" fill="white" opacity="0.15"/>
    <text x="60" y="21" text-anchor="middle" font-family="system-ui, -apple-system, sans-serif" font-size="13" font-weight="600" fill="white" opacity="0.9">FindUtils</text>
  </g>

  <!-- Accent line -->
  <rect x="60" y="450" width="80" height="4" rx="2" fill="#93c5fd" opacity="0.7"/>

  <!-- Title -->
  <text x="60" y="520" font-family="system-ui, -apple-system, sans-serif" font-size="48" font-weight="700" fill="white" letter-spacing="-1">
    Break-Even Calculator
  </text>

  <!-- Subtitle -->
  <text x="60" y="570" font-family="system-ui, -apple-system, sans-serif" font-size="22" fill="white" opacity="0.8">
    Calculate your break-even point to understand when your business or product b...
  </text>
</svg>