<svg xmlns="http://www.w3.org/2000/svg" width="1200" height="630" viewBox="0 0 1200 630">
  <defs>
    <linearGradient id="bg" x1="0%" y1="0%" x2="100%" y2="100%">
      <stop offset="0%" stop-color="#9d174d"/>
      <stop offset="50%" stop-color="#db2777"/>
      <stop offset="100%" stop-color="#f472b6"/>
    </linearGradient>
    <radialGradient id="glow" cx="30%" cy="40%" r="70%">
      <stop offset="0%" stop-color="white" stop-opacity="0.08"/>
      <stop offset="100%" stop-color="white" stop-opacity="0"/>
    </radialGradient>
    <linearGradient id="bottom-fade" x1="0%" y1="0%" x2="0%" y2="100%">
      <stop offset="0%" stop-color="#9d174d" stop-opacity="0"/>
      <stop offset="100%" stop-color="#9d174d" stop-opacity="0.7"/>
    </linearGradient>
  </defs>

  <rect width="1200" height="630" rx="16" fill="url(#bg)"/>
  <rect width="1200" height="630" rx="16" fill="url(#glow)"/>

  <!-- Grid -->
  <g opacity="0.025">
    <line x1="0" y1="0" x2="0" y2="630" stroke="white" stroke-width="1"/><line x1="80" y1="0" x2="80" y2="630" stroke="white" stroke-width="1"/><line x1="160" y1="0" x2="160" y2="630" stroke="white" stroke-width="1"/><line x1="240" y1="0" x2="240" y2="630" stroke="white" stroke-width="1"/><line x1="320" y1="0" x2="320" y2="630" stroke="white" stroke-width="1"/><line x1="400" y1="0" x2="400" y2="630" stroke="white" stroke-width="1"/><line x1="480" y1="0" x2="480" y2="630" stroke="white" stroke-width="1"/><line x1="560" y1="0" x2="560" y2="630" stroke="white" stroke-width="1"/><line x1="640" y1="0" x2="640" y2="630" stroke="white" stroke-width="1"/><line x1="720" y1="0" x2="720" y2="630" stroke="white" stroke-width="1"/><line x1="800" y1="0" x2="800" y2="630" stroke="white" stroke-width="1"/><line x1="880" y1="0" x2="880" y2="630" stroke="white" stroke-width="1"/><line x1="960" y1="0" x2="960" y2="630" stroke="white" stroke-width="1"/><line x1="1040" y1="0" x2="1040" y2="630" stroke="white" stroke-width="1"/><line x1="1120" y1="0" x2="1120" y2="630" stroke="white" stroke-width="1"/>
    <line x1="0" y1="0" x2="1200" y2="0" stroke="white" stroke-width="1"/><line x1="0" y1="80" x2="1200" y2="80" stroke="white" stroke-width="1"/><line x1="0" y1="160" x2="1200" y2="160" stroke="white" stroke-width="1"/><line x1="0" y1="240" x2="1200" y2="240" stroke="white" stroke-width="1"/><line x1="0" y1="320" x2="1200" y2="320" stroke="white" stroke-width="1"/><line x1="0" y1="400" x2="1200" y2="400" stroke="white" stroke-width="1"/><line x1="0" y1="480" x2="1200" y2="480" stroke="white" stroke-width="1"/><line x1="0" y1="560" x2="1200" y2="560" stroke="white" stroke-width="1"/>
  </g>

  <!-- Decorative -->
  <g>
    <circle cx="889" cy="324" r="95" fill="none" stroke="white" stroke-width="2" opacity="0.11"/>
    <circle cx="966" cy="448" r="71" fill="none" stroke="white" stroke-width="2" opacity="0.10"/>
    <circle cx="813" cy="308" r="64" fill="none" stroke="white" stroke-width="2" opacity="0.05"/>
    <rect x="836" y="224" width="42" height="61" rx="4" fill="none" stroke="white" stroke-width="1.5" opacity="0.07" transform="rotate(42, 857, 254)"/>
    <rect x="823" y="152" width="118" height="89" rx="4" fill="none" stroke="white" stroke-width="1.5" opacity="0.04" transform="rotate(14, 882, 196)"/>
    <circle cx="878" cy="436" r="5" fill="white" opacity="0.05"/>
    <circle cx="765" cy="446" r="3" fill="white" opacity="0.05"/>
    <circle cx="622" cy="407" r="4" fill="white" opacity="0.05"/>
    <circle cx="175" cy="261" r="3" fill="white" opacity="0.05"/>
    <circle cx="816" cy="433" r="2" fill="white" opacity="0.05"/>
    <circle cx="582" cy="415" r="5" fill="white" opacity="0.05"/>
    <circle cx="790" cy="119" r="4" fill="white" opacity="0.05"/>
    <circle cx="636" cy="427" r="4" fill="white" opacity="0.05"/>
    <line x1="901" y1="101" x2="1135" y2="335" stroke="white" stroke-width="1" opacity="0.03"/>
    <line x1="573" y1="201" x2="724" y2="352" stroke="white" stroke-width="1" opacity="0.04"/>
    <path d="M705 224 Q805 144 905 244 Q1005 344 855 404" fill="none" stroke="white" stroke-width="1.5" opacity="0.04"/>
  </g>

  <!-- Bottom fade -->
  <rect y="410" width="1200" height="220" fill="url(#bottom-fade)"/>

  <!-- Badge -->
  <g transform="translate(60, 50)">
    <rect width="120" height="32" rx="16" fill="white" opacity="0.15"/>
    <text x="60" y="21" text-anchor="middle" font-family="system-ui, -apple-system, sans-serif" font-size="13" font-weight="600" fill="white" opacity="0.9">FindUtils</text>
  </g>

  <!-- Accent line -->
  <rect x="60" y="485" width="80" height="4" rx="2" fill="#f9a8d4" opacity="0.7"/>

  <!-- Title -->
  <text x="60" y="520" font-family="system-ui, -apple-system, sans-serif" font-size="48" font-weight="700" fill="white" letter-spacing="-1">
    Color Palette Generator
  </text>

  <!-- Subtitle -->
  <text x="60" y="570" font-family="system-ui, -apple-system, sans-serif" font-size="22" fill="white" opacity="0.8">
    Generate harmonious color palettes from any base color.
  </text>
</svg>