<svg xmlns="http://www.w3.org/2000/svg" width="1200" height="630" viewBox="0 0 1200 630">
  <defs>
    <linearGradient id="bg" x1="0%" y1="0%" x2="100%" y2="100%">
      <stop offset="0%" stop-color="#2d1b69"/>
      <stop offset="50%" stop-color="#5b21b6"/>
      <stop offset="100%" stop-color="#8b5cf6"/>
    </linearGradient>
    <radialGradient id="glow" cx="30%" cy="40%" r="70%">
      <stop offset="0%" stop-color="white" stop-opacity="0.08"/>
      <stop offset="100%" stop-color="white" stop-opacity="0"/>
    </radialGradient>
    <linearGradient id="bottom-fade" x1="0%" y1="0%" x2="0%" y2="100%">
      <stop offset="0%" stop-color="#2d1b69" stop-opacity="0"/>
      <stop offset="100%" stop-color="#2d1b69" stop-opacity="0.7"/>
    </linearGradient>
  </defs>

  <rect width="1200" height="630" rx="16" fill="url(#bg)"/>
  <rect width="1200" height="630" rx="16" fill="url(#glow)"/>

  <!-- Grid -->
  <g opacity="0.025">
    <line x1="0" y1="0" x2="0" y2="630" stroke="white" stroke-width="1"/><line x1="80" y1="0" x2="80" y2="630" stroke="white" stroke-width="1"/><line x1="160" y1="0" x2="160" y2="630" stroke="white" stroke-width="1"/><line x1="240" y1="0" x2="240" y2="630" stroke="white" stroke-width="1"/><line x1="320" y1="0" x2="320" y2="630" stroke="white" stroke-width="1"/><line x1="400" y1="0" x2="400" y2="630" stroke="white" stroke-width="1"/><line x1="480" y1="0" x2="480" y2="630" stroke="white" stroke-width="1"/><line x1="560" y1="0" x2="560" y2="630" stroke="white" stroke-width="1"/><line x1="640" y1="0" x2="640" y2="630" stroke="white" stroke-width="1"/><line x1="720" y1="0" x2="720" y2="630" stroke="white" stroke-width="1"/><line x1="800" y1="0" x2="800" y2="630" stroke="white" stroke-width="1"/><line x1="880" y1="0" x2="880" y2="630" stroke="white" stroke-width="1"/><line x1="960" y1="0" x2="960" y2="630" stroke="white" stroke-width="1"/><line x1="1040" y1="0" x2="1040" y2="630" stroke="white" stroke-width="1"/><line x1="1120" y1="0" x2="1120" y2="630" stroke="white" stroke-width="1"/>
    <line x1="0" y1="0" x2="1200" y2="0" stroke="white" stroke-width="1"/><line x1="0" y1="80" x2="1200" y2="80" stroke="white" stroke-width="1"/><line x1="0" y1="160" x2="1200" y2="160" stroke="white" stroke-width="1"/><line x1="0" y1="240" x2="1200" y2="240" stroke="white" stroke-width="1"/><line x1="0" y1="320" x2="1200" y2="320" stroke="white" stroke-width="1"/><line x1="0" y1="400" x2="1200" y2="400" stroke="white" stroke-width="1"/><line x1="0" y1="480" x2="1200" y2="480" stroke="white" stroke-width="1"/><line x1="0" y1="560" x2="1200" y2="560" stroke="white" stroke-width="1"/>
  </g>

  <!-- Decorative -->
  <g>
    <circle cx="768" cy="107" r="51" fill="none" stroke="white" stroke-width="2" opacity="0.08"/>
    <circle cx="928" cy="239" r="43" fill="none" stroke="white" stroke-width="2" opacity="0.05"/>
    <circle cx="961" cy="319" r="49" fill="none" stroke="white" stroke-width="2" opacity="0.08"/>
    <rect x="717" y="347" width="52" height="53" rx="4" fill="none" stroke="white" stroke-width="1.5" opacity="0.04" transform="rotate(42, 743, 373)"/>
    <rect x="861" y="172" width="103" height="109" rx="4" fill="none" stroke="white" stroke-width="1.5" opacity="0.07" transform="rotate(12, 912, 226)"/>
    <circle cx="371" cy="342" r="5" fill="white" opacity="0.05"/>
    <circle cx="441" cy="288" r="2" fill="white" opacity="0.05"/>
    <circle cx="379" cy="184" r="3" fill="white" opacity="0.05"/>
    <circle cx="624" cy="368" r="2" fill="white" opacity="0.05"/>
    <circle cx="652" cy="286" r="2" fill="white" opacity="0.05"/>
    <circle cx="636" cy="213" r="3" fill="white" opacity="0.05"/>
    <circle cx="398" cy="254" r="3" fill="white" opacity="0.05"/>
    <circle cx="1014" cy="164" r="3" fill="white" opacity="0.05"/>
    <line x1="595" y1="110" x2="736" y2="251" stroke="white" stroke-width="1" opacity="0.03"/>
    <line x1="794" y1="225" x2="922" y2="353" stroke="white" stroke-width="1" opacity="0.03"/>
    <path d="M900 193 Q1000 113 1100 213 Q1200 313 1050 373" fill="none" stroke="white" stroke-width="1.5" opacity="0.04"/>
  </g>

  <!-- Bottom fade -->
  <rect y="410" width="1200" height="220" fill="url(#bottom-fade)"/>

  <!-- Badge -->
  <g transform="translate(60, 50)">
    <rect width="120" height="32" rx="16" fill="white" opacity="0.15"/>
    <text x="60" y="21" text-anchor="middle" font-family="system-ui, -apple-system, sans-serif" font-size="13" font-weight="600" fill="white" opacity="0.9">FindUtils</text>
  </g>

  <!-- Accent line -->
  <rect x="60" y="450" width="80" height="4" rx="2" fill="#c4b5fd" opacity="0.7"/>

  <!-- Title -->
  <text x="60" y="520" font-family="system-ui, -apple-system, sans-serif" font-size="48" font-weight="700" fill="white" letter-spacing="-1">
    CSV to Excel Converter
  </text>

  <!-- Subtitle -->
  <text x="60" y="570" font-family="system-ui, -apple-system, sans-serif" font-size="22" fill="white" opacity="0.8">
    Convert CSV files to Excel (XLSX) format free online.
  </text>
</svg>