<svg xmlns="http://www.w3.org/2000/svg" width="1200" height="630" viewBox="0 0 1200 630">
  <defs>
    <linearGradient id="bg" x1="0%" y1="0%" x2="100%" y2="100%">
      <stop offset="0%" stop-color="#365314"/>
      <stop offset="50%" stop-color="#4d7c0f"/>
      <stop offset="100%" stop-color="#84cc16"/>
    </linearGradient>
    <radialGradient id="glow" cx="30%" cy="40%" r="70%">
      <stop offset="0%" stop-color="white" stop-opacity="0.08"/>
      <stop offset="100%" stop-color="white" stop-opacity="0"/>
    </radialGradient>
    <linearGradient id="bottom-fade" x1="0%" y1="0%" x2="0%" y2="100%">
      <stop offset="0%" stop-color="#365314" stop-opacity="0"/>
      <stop offset="100%" stop-color="#365314" stop-opacity="0.7"/>
    </linearGradient>
  </defs>

  <rect width="1200" height="630" rx="16" fill="url(#bg)"/>
  <rect width="1200" height="630" rx="16" fill="url(#glow)"/>

  <!-- Grid -->
  <g opacity="0.025">
    <line x1="0" y1="0" x2="0" y2="630" stroke="white" stroke-width="1"/><line x1="80" y1="0" x2="80" y2="630" stroke="white" stroke-width="1"/><line x1="160" y1="0" x2="160" y2="630" stroke="white" stroke-width="1"/><line x1="240" y1="0" x2="240" y2="630" stroke="white" stroke-width="1"/><line x1="320" y1="0" x2="320" y2="630" stroke="white" stroke-width="1"/><line x1="400" y1="0" x2="400" y2="630" stroke="white" stroke-width="1"/><line x1="480" y1="0" x2="480" y2="630" stroke="white" stroke-width="1"/><line x1="560" y1="0" x2="560" y2="630" stroke="white" stroke-width="1"/><line x1="640" y1="0" x2="640" y2="630" stroke="white" stroke-width="1"/><line x1="720" y1="0" x2="720" y2="630" stroke="white" stroke-width="1"/><line x1="800" y1="0" x2="800" y2="630" stroke="white" stroke-width="1"/><line x1="880" y1="0" x2="880" y2="630" stroke="white" stroke-width="1"/><line x1="960" y1="0" x2="960" y2="630" stroke="white" stroke-width="1"/><line x1="1040" y1="0" x2="1040" y2="630" stroke="white" stroke-width="1"/><line x1="1120" y1="0" x2="1120" y2="630" stroke="white" stroke-width="1"/>
    <line x1="0" y1="0" x2="1200" y2="0" stroke="white" stroke-width="1"/><line x1="0" y1="80" x2="1200" y2="80" stroke="white" stroke-width="1"/><line x1="0" y1="160" x2="1200" y2="160" stroke="white" stroke-width="1"/><line x1="0" y1="240" x2="1200" y2="240" stroke="white" stroke-width="1"/><line x1="0" y1="320" x2="1200" y2="320" stroke="white" stroke-width="1"/><line x1="0" y1="400" x2="1200" y2="400" stroke="white" stroke-width="1"/><line x1="0" y1="480" x2="1200" y2="480" stroke="white" stroke-width="1"/><line x1="0" y1="560" x2="1200" y2="560" stroke="white" stroke-width="1"/>
  </g>

  <!-- Decorative -->
  <g>
    <circle cx="944" cy="221" r="42" fill="none" stroke="white" stroke-width="2" opacity="0.09"/>
    <circle cx="763" cy="313" r="67" fill="none" stroke="white" stroke-width="2" opacity="0.08"/>
    <circle cx="841" cy="295" r="81" fill="none" stroke="white" stroke-width="2" opacity="0.07"/>
    <rect x="767" y="172" width="84" height="104" rx="4" fill="none" stroke="white" stroke-width="1.5" opacity="0.04" transform="rotate(33, 809, 224)"/>
    <rect x="614" y="115" width="65" height="57" rx="4" fill="none" stroke="white" stroke-width="1.5" opacity="0.04" transform="rotate(9, 646, 143)"/>
    <circle cx="215" cy="96" r="4" fill="white" opacity="0.05"/>
    <circle cx="894" cy="100" r="4" fill="white" opacity="0.05"/>
    <circle cx="425" cy="434" r="3" fill="white" opacity="0.05"/>
    <circle cx="882" cy="409" r="5" fill="white" opacity="0.05"/>
    <circle cx="911" cy="433" r="4" fill="white" opacity="0.05"/>
    <circle cx="609" cy="351" r="3" fill="white" opacity="0.05"/>
    <circle cx="216" cy="344" r="4" fill="white" opacity="0.05"/>
    <circle cx="1041" cy="216" r="4" fill="white" opacity="0.05"/>
    <line x1="676" y1="173" x2="818" y2="315" stroke="white" stroke-width="1" opacity="0.07"/>
    <line x1="882" y1="173" x2="1153" y2="444" stroke="white" stroke-width="1" opacity="0.06"/>
    <path d="M995 289 Q1095 209 1195 309 Q1295 409 1145 469" fill="none" stroke="white" stroke-width="1.5" opacity="0.04"/>
  </g>

  <!-- Bottom fade -->
  <rect y="410" width="1200" height="220" fill="url(#bottom-fade)"/>

  <!-- Badge -->
  <g transform="translate(60, 50)">
    <rect width="120" height="32" rx="16" fill="white" opacity="0.15"/>
    <text x="60" y="21" text-anchor="middle" font-family="system-ui, -apple-system, sans-serif" font-size="13" font-weight="600" fill="white" opacity="0.9">FindUtils</text>
  </g>

  <!-- Accent line -->
  <rect x="60" y="485" width="80" height="4" rx="2" fill="#bef264" opacity="0.7"/>

  <!-- Title -->
  <text x="60" y="520" font-family="system-ui, -apple-system, sans-serif" font-size="48" font-weight="700" fill="white" letter-spacing="-1">
    Decision Tree Builder
  </text>

  <!-- Subtitle -->
  <text x="60" y="570" font-family="system-ui, -apple-system, sans-serif" font-size="22" fill="white" opacity="0.8">
    Build interactive decision trees with yes/no branches.
  </text>
</svg>