<svg xmlns="http://www.w3.org/2000/svg" width="1200" height="630" viewBox="0 0 1200 630">
  <defs>
    <linearGradient id="bg" x1="0%" y1="0%" x2="100%" y2="100%">
      <stop offset="0%" stop-color="#365314"/>
      <stop offset="50%" stop-color="#4d7c0f"/>
      <stop offset="100%" stop-color="#84cc16"/>
    </linearGradient>
    <radialGradient id="glow" cx="30%" cy="40%" r="70%">
      <stop offset="0%" stop-color="white" stop-opacity="0.08"/>
      <stop offset="100%" stop-color="white" stop-opacity="0"/>
    </radialGradient>
    <linearGradient id="bottom-fade" x1="0%" y1="0%" x2="0%" y2="100%">
      <stop offset="0%" stop-color="#365314" stop-opacity="0"/>
      <stop offset="100%" stop-color="#365314" stop-opacity="0.7"/>
    </linearGradient>
  </defs>

  <rect width="1200" height="630" rx="16" fill="url(#bg)"/>
  <rect width="1200" height="630" rx="16" fill="url(#glow)"/>

  <!-- Grid -->
  <g opacity="0.025">
    <line x1="0" y1="0" x2="0" y2="630" stroke="white" stroke-width="1"/><line x1="80" y1="0" x2="80" y2="630" stroke="white" stroke-width="1"/><line x1="160" y1="0" x2="160" y2="630" stroke="white" stroke-width="1"/><line x1="240" y1="0" x2="240" y2="630" stroke="white" stroke-width="1"/><line x1="320" y1="0" x2="320" y2="630" stroke="white" stroke-width="1"/><line x1="400" y1="0" x2="400" y2="630" stroke="white" stroke-width="1"/><line x1="480" y1="0" x2="480" y2="630" stroke="white" stroke-width="1"/><line x1="560" y1="0" x2="560" y2="630" stroke="white" stroke-width="1"/><line x1="640" y1="0" x2="640" y2="630" stroke="white" stroke-width="1"/><line x1="720" y1="0" x2="720" y2="630" stroke="white" stroke-width="1"/><line x1="800" y1="0" x2="800" y2="630" stroke="white" stroke-width="1"/><line x1="880" y1="0" x2="880" y2="630" stroke="white" stroke-width="1"/><line x1="960" y1="0" x2="960" y2="630" stroke="white" stroke-width="1"/><line x1="1040" y1="0" x2="1040" y2="630" stroke="white" stroke-width="1"/><line x1="1120" y1="0" x2="1120" y2="630" stroke="white" stroke-width="1"/>
    <line x1="0" y1="0" x2="1200" y2="0" stroke="white" stroke-width="1"/><line x1="0" y1="80" x2="1200" y2="80" stroke="white" stroke-width="1"/><line x1="0" y1="160" x2="1200" y2="160" stroke="white" stroke-width="1"/><line x1="0" y1="240" x2="1200" y2="240" stroke="white" stroke-width="1"/><line x1="0" y1="320" x2="1200" y2="320" stroke="white" stroke-width="1"/><line x1="0" y1="400" x2="1200" y2="400" stroke="white" stroke-width="1"/><line x1="0" y1="480" x2="1200" y2="480" stroke="white" stroke-width="1"/><line x1="0" y1="560" x2="1200" y2="560" stroke="white" stroke-width="1"/>
  </g>

  <!-- Decorative -->
  <g>
    <circle cx="1036" cy="115" r="40" fill="none" stroke="white" stroke-width="2" opacity="0.06"/>
    <circle cx="730" cy="370" r="55" fill="none" stroke="white" stroke-width="2" opacity="0.06"/>
    <circle cx="869" cy="350" r="105" fill="none" stroke="white" stroke-width="2" opacity="0.08"/>
    <rect x="1023" y="324" width="78" height="105" rx="4" fill="none" stroke="white" stroke-width="1.5" opacity="0.06" transform="rotate(14, 1062, 376)"/>
    <rect x="618" y="313" width="107" height="42" rx="4" fill="none" stroke="white" stroke-width="1.5" opacity="0.03" transform="rotate(43, 671, 334)"/>
    <circle cx="921" cy="99" r="4" fill="white" opacity="0.05"/>
    <circle cx="993" cy="325" r="2" fill="white" opacity="0.05"/>
    <circle cx="939" cy="468" r="5" fill="white" opacity="0.05"/>
    <circle cx="512" cy="281" r="2" fill="white" opacity="0.05"/>
    <circle cx="602" cy="104" r="3" fill="white" opacity="0.05"/>
    <circle cx="339" cy="191" r="4" fill="white" opacity="0.05"/>
    <circle cx="1051" cy="274" r="3" fill="white" opacity="0.05"/>
    <circle cx="746" cy="222" r="5" fill="white" opacity="0.05"/>
    <line x1="999" y1="99" x2="1104" y2="204" stroke="white" stroke-width="1" opacity="0.07"/>
    <line x1="683" y1="221" x2="897" y2="435" stroke="white" stroke-width="1" opacity="0.04"/>
    <path d="M865 240 Q965 160 1065 260 Q1165 360 1015 420" fill="none" stroke="white" stroke-width="1.5" opacity="0.04"/>
  </g>

  <!-- Bottom fade -->
  <rect y="410" width="1200" height="220" fill="url(#bottom-fade)"/>

  <!-- Badge -->
  <g transform="translate(60, 50)">
    <rect width="120" height="32" rx="16" fill="white" opacity="0.15"/>
    <text x="60" y="21" text-anchor="middle" font-family="system-ui, -apple-system, sans-serif" font-size="13" font-weight="600" fill="white" opacity="0.9">FindUtils</text>
  </g>

  <!-- Accent line -->
  <rect x="60" y="485" width="80" height="4" rx="2" fill="#bef264" opacity="0.7"/>

  <!-- Title -->
  <text x="60" y="520" font-family="system-ui, -apple-system, sans-serif" font-size="48" font-weight="700" fill="white" letter-spacing="-1">
    HAR to cURL Converter
  </text>

  <!-- Subtitle -->
  <text x="60" y="570" font-family="system-ui, -apple-system, sans-serif" font-size="22" fill="white" opacity="0.8">
    Convert HAR (HTTP Archive) files from browser DevTools to cURL commands.
  </text>
</svg>