<svg xmlns="http://www.w3.org/2000/svg" width="1200" height="630" viewBox="0 0 1200 630">
  <defs>
    <linearGradient id="bg" x1="0%" y1="0%" x2="100%" y2="100%">
      <stop offset="0%" stop-color="#1c1917"/>
      <stop offset="50%" stop-color="#44403c"/>
      <stop offset="100%" stop-color="#78716c"/>
    </linearGradient>
    <radialGradient id="glow" cx="30%" cy="40%" r="70%">
      <stop offset="0%" stop-color="white" stop-opacity="0.08"/>
      <stop offset="100%" stop-color="white" stop-opacity="0"/>
    </radialGradient>
    <linearGradient id="bottom-fade" x1="0%" y1="0%" x2="0%" y2="100%">
      <stop offset="0%" stop-color="#1c1917" stop-opacity="0"/>
      <stop offset="100%" stop-color="#1c1917" stop-opacity="0.7"/>
    </linearGradient>
  </defs>

  <rect width="1200" height="630" rx="16" fill="url(#bg)"/>
  <rect width="1200" height="630" rx="16" fill="url(#glow)"/>

  <!-- Grid -->
  <g opacity="0.025">
    <line x1="0" y1="0" x2="0" y2="630" stroke="white" stroke-width="1"/><line x1="80" y1="0" x2="80" y2="630" stroke="white" stroke-width="1"/><line x1="160" y1="0" x2="160" y2="630" stroke="white" stroke-width="1"/><line x1="240" y1="0" x2="240" y2="630" stroke="white" stroke-width="1"/><line x1="320" y1="0" x2="320" y2="630" stroke="white" stroke-width="1"/><line x1="400" y1="0" x2="400" y2="630" stroke="white" stroke-width="1"/><line x1="480" y1="0" x2="480" y2="630" stroke="white" stroke-width="1"/><line x1="560" y1="0" x2="560" y2="630" stroke="white" stroke-width="1"/><line x1="640" y1="0" x2="640" y2="630" stroke="white" stroke-width="1"/><line x1="720" y1="0" x2="720" y2="630" stroke="white" stroke-width="1"/><line x1="800" y1="0" x2="800" y2="630" stroke="white" stroke-width="1"/><line x1="880" y1="0" x2="880" y2="630" stroke="white" stroke-width="1"/><line x1="960" y1="0" x2="960" y2="630" stroke="white" stroke-width="1"/><line x1="1040" y1="0" x2="1040" y2="630" stroke="white" stroke-width="1"/><line x1="1120" y1="0" x2="1120" y2="630" stroke="white" stroke-width="1"/>
    <line x1="0" y1="0" x2="1200" y2="0" stroke="white" stroke-width="1"/><line x1="0" y1="80" x2="1200" y2="80" stroke="white" stroke-width="1"/><line x1="0" y1="160" x2="1200" y2="160" stroke="white" stroke-width="1"/><line x1="0" y1="240" x2="1200" y2="240" stroke="white" stroke-width="1"/><line x1="0" y1="320" x2="1200" y2="320" stroke="white" stroke-width="1"/><line x1="0" y1="400" x2="1200" y2="400" stroke="white" stroke-width="1"/><line x1="0" y1="480" x2="1200" y2="480" stroke="white" stroke-width="1"/><line x1="0" y1="560" x2="1200" y2="560" stroke="white" stroke-width="1"/>
  </g>

  <!-- Decorative -->
  <g>
    <circle cx="905" cy="418" r="83" fill="none" stroke="white" stroke-width="2" opacity="0.04"/>
    <circle cx="757" cy="369" r="32" fill="none" stroke="white" stroke-width="2" opacity="0.07"/>
    <circle cx="1148" cy="167" r="75" fill="none" stroke="white" stroke-width="2" opacity="0.09"/>
    <rect x="851" y="90" width="72" height="49" rx="4" fill="none" stroke="white" stroke-width="1.5" opacity="0.04" transform="rotate(12, 887, 114)"/>
    <rect x="788" y="201" width="50" height="116" rx="4" fill="none" stroke="white" stroke-width="1.5" opacity="0.04" transform="rotate(42, 813, 259)"/>
    <circle cx="395" cy="263" r="3" fill="white" opacity="0.05"/>
    <circle cx="1019" cy="132" r="3" fill="white" opacity="0.05"/>
    <circle cx="210" cy="173" r="5" fill="white" opacity="0.05"/>
    <circle cx="914" cy="212" r="5" fill="white" opacity="0.05"/>
    <circle cx="869" cy="474" r="3" fill="white" opacity="0.05"/>
    <circle cx="488" cy="97" r="4" fill="white" opacity="0.05"/>
    <circle cx="169" cy="271" r="5" fill="white" opacity="0.05"/>
    <circle cx="939" cy="386" r="5" fill="white" opacity="0.05"/>
    <line x1="560" y1="230" x2="812" y2="482" stroke="white" stroke-width="1" opacity="0.06"/>
    <line x1="783" y1="55" x2="997" y2="269" stroke="white" stroke-width="1" opacity="0.06"/>
    <path d="M694 390 Q794 310 894 410 Q994 510 844 570" fill="none" stroke="white" stroke-width="1.5" opacity="0.04"/>
  </g>

  <!-- Bottom fade -->
  <rect y="410" width="1200" height="220" fill="url(#bottom-fade)"/>

  <!-- Badge -->
  <g transform="translate(60, 50)">
    <rect width="120" height="32" rx="16" fill="white" opacity="0.15"/>
    <text x="60" y="21" text-anchor="middle" font-family="system-ui, -apple-system, sans-serif" font-size="13" font-weight="600" fill="white" opacity="0.9">FindUtils</text>
  </g>

  <!-- Accent line -->
  <rect x="60" y="450" width="80" height="4" rx="2" fill="#d6d3d1" opacity="0.7"/>

  <!-- Title -->
  <text x="60" y="520" font-family="system-ui, -apple-system, sans-serif" font-size="48" font-weight="700" fill="white" letter-spacing="-1">
    Hash Comparison Tool
  </text>

  <!-- Subtitle -->
  <text x="60" y="570" font-family="system-ui, -apple-system, sans-serif" font-size="22" fill="white" opacity="0.8">
    Compare file or text hashes to verify integrity.
  </text>
</svg>