<svg xmlns="http://www.w3.org/2000/svg" width="1200" height="630" viewBox="0 0 1200 630">
  <defs>
    <linearGradient id="bg" x1="0%" y1="0%" x2="100%" y2="100%">
      <stop offset="0%" stop-color="#7c2d12"/>
      <stop offset="50%" stop-color="#c2410c"/>
      <stop offset="100%" stop-color="#f97316"/>
    </linearGradient>
    <radialGradient id="glow" cx="30%" cy="40%" r="70%">
      <stop offset="0%" stop-color="white" stop-opacity="0.08"/>
      <stop offset="100%" stop-color="white" stop-opacity="0"/>
    </radialGradient>
    <linearGradient id="bottom-fade" x1="0%" y1="0%" x2="0%" y2="100%">
      <stop offset="0%" stop-color="#7c2d12" stop-opacity="0"/>
      <stop offset="100%" stop-color="#7c2d12" stop-opacity="0.7"/>
    </linearGradient>
  </defs>

  <rect width="1200" height="630" rx="16" fill="url(#bg)"/>
  <rect width="1200" height="630" rx="16" fill="url(#glow)"/>

  <!-- Grid -->
  <g opacity="0.025">
    <line x1="0" y1="0" x2="0" y2="630" stroke="white" stroke-width="1"/><line x1="80" y1="0" x2="80" y2="630" stroke="white" stroke-width="1"/><line x1="160" y1="0" x2="160" y2="630" stroke="white" stroke-width="1"/><line x1="240" y1="0" x2="240" y2="630" stroke="white" stroke-width="1"/><line x1="320" y1="0" x2="320" y2="630" stroke="white" stroke-width="1"/><line x1="400" y1="0" x2="400" y2="630" stroke="white" stroke-width="1"/><line x1="480" y1="0" x2="480" y2="630" stroke="white" stroke-width="1"/><line x1="560" y1="0" x2="560" y2="630" stroke="white" stroke-width="1"/><line x1="640" y1="0" x2="640" y2="630" stroke="white" stroke-width="1"/><line x1="720" y1="0" x2="720" y2="630" stroke="white" stroke-width="1"/><line x1="800" y1="0" x2="800" y2="630" stroke="white" stroke-width="1"/><line x1="880" y1="0" x2="880" y2="630" stroke="white" stroke-width="1"/><line x1="960" y1="0" x2="960" y2="630" stroke="white" stroke-width="1"/><line x1="1040" y1="0" x2="1040" y2="630" stroke="white" stroke-width="1"/><line x1="1120" y1="0" x2="1120" y2="630" stroke="white" stroke-width="1"/>
    <line x1="0" y1="0" x2="1200" y2="0" stroke="white" stroke-width="1"/><line x1="0" y1="80" x2="1200" y2="80" stroke="white" stroke-width="1"/><line x1="0" y1="160" x2="1200" y2="160" stroke="white" stroke-width="1"/><line x1="0" y1="240" x2="1200" y2="240" stroke="white" stroke-width="1"/><line x1="0" y1="320" x2="1200" y2="320" stroke="white" stroke-width="1"/><line x1="0" y1="400" x2="1200" y2="400" stroke="white" stroke-width="1"/><line x1="0" y1="480" x2="1200" y2="480" stroke="white" stroke-width="1"/><line x1="0" y1="560" x2="1200" y2="560" stroke="white" stroke-width="1"/>
  </g>

  <!-- Decorative -->
  <g>
    <circle cx="921" cy="293" r="47" fill="none" stroke="white" stroke-width="2" opacity="0.10"/>
    <circle cx="1001" cy="311" r="73" fill="none" stroke="white" stroke-width="2" opacity="0.10"/>
    <circle cx="1120" cy="434" r="94" fill="none" stroke="white" stroke-width="2" opacity="0.04"/>
    <rect x="1064" y="324" width="73" height="60" rx="4" fill="none" stroke="white" stroke-width="1.5" opacity="0.08" transform="rotate(41, 1100, 354)"/>
    <rect x="709" y="331" width="67" height="57" rx="4" fill="none" stroke="white" stroke-width="1.5" opacity="0.03" transform="rotate(32, 742, 359)"/>
    <circle cx="955" cy="401" r="5" fill="white" opacity="0.05"/>
    <circle cx="274" cy="318" r="5" fill="white" opacity="0.05"/>
    <circle cx="596" cy="344" r="3" fill="white" opacity="0.05"/>
    <circle cx="221" cy="333" r="3" fill="white" opacity="0.05"/>
    <circle cx="954" cy="407" r="3" fill="white" opacity="0.05"/>
    <circle cx="1069" cy="170" r="4" fill="white" opacity="0.05"/>
    <circle cx="543" cy="321" r="4" fill="white" opacity="0.05"/>
    <circle cx="896" cy="396" r="5" fill="white" opacity="0.05"/>
    <line x1="602" y1="206" x2="746" y2="350" stroke="white" stroke-width="1" opacity="0.07"/>
    <line x1="736" y1="112" x2="916" y2="292" stroke="white" stroke-width="1" opacity="0.06"/>
    <path d="M638 357 Q738 277 838 377 Q938 477 788 537" fill="none" stroke="white" stroke-width="1.5" opacity="0.04"/>
  </g>

  <!-- Bottom fade -->
  <rect y="410" width="1200" height="220" fill="url(#bottom-fade)"/>

  <!-- Badge -->
  <g transform="translate(60, 50)">
    <rect width="120" height="32" rx="16" fill="white" opacity="0.15"/>
    <text x="60" y="21" text-anchor="middle" font-family="system-ui, -apple-system, sans-serif" font-size="13" font-weight="600" fill="white" opacity="0.9">FindUtils</text>
  </g>

  <!-- Accent line -->
  <rect x="60" y="485" width="80" height="4" rx="2" fill="#fdba74" opacity="0.7"/>

  <!-- Title -->
  <text x="60" y="520" font-family="system-ui, -apple-system, sans-serif" font-size="48" font-weight="700" fill="white" letter-spacing="-1">
    Home Affordability Calculator
  </text>

  <!-- Subtitle -->
  <text x="60" y="570" font-family="system-ui, -apple-system, sans-serif" font-size="22" fill="white" opacity="0.8">
    Calculate how much house you can afford based on income, debts, and down paym...
  </text>
</svg>