<svg xmlns="http://www.w3.org/2000/svg" width="1200" height="630" viewBox="0 0 1200 630">
  <defs>
    <linearGradient id="bg" x1="0%" y1="0%" x2="100%" y2="100%">
      <stop offset="0%" stop-color="#9d174d"/>
      <stop offset="50%" stop-color="#db2777"/>
      <stop offset="100%" stop-color="#f472b6"/>
    </linearGradient>
    <radialGradient id="glow" cx="30%" cy="40%" r="70%">
      <stop offset="0%" stop-color="white" stop-opacity="0.08"/>
      <stop offset="100%" stop-color="white" stop-opacity="0"/>
    </radialGradient>
    <linearGradient id="bottom-fade" x1="0%" y1="0%" x2="0%" y2="100%">
      <stop offset="0%" stop-color="#9d174d" stop-opacity="0"/>
      <stop offset="100%" stop-color="#9d174d" stop-opacity="0.7"/>
    </linearGradient>
  </defs>

  <rect width="1200" height="630" rx="16" fill="url(#bg)"/>
  <rect width="1200" height="630" rx="16" fill="url(#glow)"/>

  <!-- Grid -->
  <g opacity="0.025">
    <line x1="0" y1="0" x2="0" y2="630" stroke="white" stroke-width="1"/><line x1="80" y1="0" x2="80" y2="630" stroke="white" stroke-width="1"/><line x1="160" y1="0" x2="160" y2="630" stroke="white" stroke-width="1"/><line x1="240" y1="0" x2="240" y2="630" stroke="white" stroke-width="1"/><line x1="320" y1="0" x2="320" y2="630" stroke="white" stroke-width="1"/><line x1="400" y1="0" x2="400" y2="630" stroke="white" stroke-width="1"/><line x1="480" y1="0" x2="480" y2="630" stroke="white" stroke-width="1"/><line x1="560" y1="0" x2="560" y2="630" stroke="white" stroke-width="1"/><line x1="640" y1="0" x2="640" y2="630" stroke="white" stroke-width="1"/><line x1="720" y1="0" x2="720" y2="630" stroke="white" stroke-width="1"/><line x1="800" y1="0" x2="800" y2="630" stroke="white" stroke-width="1"/><line x1="880" y1="0" x2="880" y2="630" stroke="white" stroke-width="1"/><line x1="960" y1="0" x2="960" y2="630" stroke="white" stroke-width="1"/><line x1="1040" y1="0" x2="1040" y2="630" stroke="white" stroke-width="1"/><line x1="1120" y1="0" x2="1120" y2="630" stroke="white" stroke-width="1"/>
    <line x1="0" y1="0" x2="1200" y2="0" stroke="white" stroke-width="1"/><line x1="0" y1="80" x2="1200" y2="80" stroke="white" stroke-width="1"/><line x1="0" y1="160" x2="1200" y2="160" stroke="white" stroke-width="1"/><line x1="0" y1="240" x2="1200" y2="240" stroke="white" stroke-width="1"/><line x1="0" y1="320" x2="1200" y2="320" stroke="white" stroke-width="1"/><line x1="0" y1="400" x2="1200" y2="400" stroke="white" stroke-width="1"/><line x1="0" y1="480" x2="1200" y2="480" stroke="white" stroke-width="1"/><line x1="0" y1="560" x2="1200" y2="560" stroke="white" stroke-width="1"/>
  </g>

  <!-- Decorative -->
  <g>
    <circle cx="1105" cy="436" r="38" fill="none" stroke="white" stroke-width="2" opacity="0.07"/>
    <circle cx="1128" cy="271" r="61" fill="none" stroke="white" stroke-width="2" opacity="0.04"/>
    <circle cx="1021" cy="269" r="79" fill="none" stroke="white" stroke-width="2" opacity="0.07"/>
    <rect x="936" y="266" width="67" height="45" rx="4" fill="none" stroke="white" stroke-width="1.5" opacity="0.04" transform="rotate(43, 969, 288)"/>
    <rect x="863" y="224" width="63" height="113" rx="4" fill="none" stroke="white" stroke-width="1.5" opacity="0.08" transform="rotate(12, 894, 280)"/>
    <circle cx="1056" cy="426" r="3" fill="white" opacity="0.05"/>
    <circle cx="1017" cy="258" r="5" fill="white" opacity="0.05"/>
    <circle cx="220" cy="164" r="5" fill="white" opacity="0.05"/>
    <circle cx="777" cy="167" r="2" fill="white" opacity="0.05"/>
    <circle cx="927" cy="117" r="3" fill="white" opacity="0.05"/>
    <circle cx="208" cy="287" r="4" fill="white" opacity="0.05"/>
    <circle cx="274" cy="90" r="4" fill="white" opacity="0.05"/>
    <circle cx="434" cy="435" r="2" fill="white" opacity="0.05"/>
    <line x1="574" y1="126" x2="697" y2="249" stroke="white" stroke-width="1" opacity="0.04"/>
    <line x1="592" y1="191" x2="851" y2="450" stroke="white" stroke-width="1" opacity="0.07"/>
    <path d="M845 262 Q945 182 1045 282 Q1145 382 995 442" fill="none" stroke="white" stroke-width="1.5" opacity="0.04"/>
  </g>

  <!-- Bottom fade -->
  <rect y="410" width="1200" height="220" fill="url(#bottom-fade)"/>

  <!-- Badge -->
  <g transform="translate(60, 50)">
    <rect width="120" height="32" rx="16" fill="white" opacity="0.15"/>
    <text x="60" y="21" text-anchor="middle" font-family="system-ui, -apple-system, sans-serif" font-size="13" font-weight="600" fill="white" opacity="0.9">FindUtils</text>
  </g>

  <!-- Accent line -->
  <rect x="60" y="450" width="80" height="4" rx="2" fill="#f9a8d4" opacity="0.7"/>

  <!-- Title -->
  <text x="60" y="520" font-family="system-ui, -apple-system, sans-serif" font-size="48" font-weight="700" fill="white" letter-spacing="-1">
    Image Color Extractor
  </text>

  <!-- Subtitle -->
  <text x="60" y="570" font-family="system-ui, -apple-system, sans-serif" font-size="22" fill="white" opacity="0.8">
    Extract a color palette from any image instantly.
  </text>
</svg>