<svg xmlns="http://www.w3.org/2000/svg" width="1200" height="630" viewBox="0 0 1200 630">
  <defs>
    <linearGradient id="bg" x1="0%" y1="0%" x2="100%" y2="100%">
      <stop offset="0%" stop-color="#9d174d"/>
      <stop offset="50%" stop-color="#db2777"/>
      <stop offset="100%" stop-color="#f472b6"/>
    </linearGradient>
    <radialGradient id="glow" cx="30%" cy="40%" r="70%">
      <stop offset="0%" stop-color="white" stop-opacity="0.08"/>
      <stop offset="100%" stop-color="white" stop-opacity="0"/>
    </radialGradient>
    <linearGradient id="bottom-fade" x1="0%" y1="0%" x2="0%" y2="100%">
      <stop offset="0%" stop-color="#9d174d" stop-opacity="0"/>
      <stop offset="100%" stop-color="#9d174d" stop-opacity="0.7"/>
    </linearGradient>
  </defs>

  <rect width="1200" height="630" rx="16" fill="url(#bg)"/>
  <rect width="1200" height="630" rx="16" fill="url(#glow)"/>

  <!-- Grid -->
  <g opacity="0.025">
    <line x1="0" y1="0" x2="0" y2="630" stroke="white" stroke-width="1"/><line x1="80" y1="0" x2="80" y2="630" stroke="white" stroke-width="1"/><line x1="160" y1="0" x2="160" y2="630" stroke="white" stroke-width="1"/><line x1="240" y1="0" x2="240" y2="630" stroke="white" stroke-width="1"/><line x1="320" y1="0" x2="320" y2="630" stroke="white" stroke-width="1"/><line x1="400" y1="0" x2="400" y2="630" stroke="white" stroke-width="1"/><line x1="480" y1="0" x2="480" y2="630" stroke="white" stroke-width="1"/><line x1="560" y1="0" x2="560" y2="630" stroke="white" stroke-width="1"/><line x1="640" y1="0" x2="640" y2="630" stroke="white" stroke-width="1"/><line x1="720" y1="0" x2="720" y2="630" stroke="white" stroke-width="1"/><line x1="800" y1="0" x2="800" y2="630" stroke="white" stroke-width="1"/><line x1="880" y1="0" x2="880" y2="630" stroke="white" stroke-width="1"/><line x1="960" y1="0" x2="960" y2="630" stroke="white" stroke-width="1"/><line x1="1040" y1="0" x2="1040" y2="630" stroke="white" stroke-width="1"/><line x1="1120" y1="0" x2="1120" y2="630" stroke="white" stroke-width="1"/>
    <line x1="0" y1="0" x2="1200" y2="0" stroke="white" stroke-width="1"/><line x1="0" y1="80" x2="1200" y2="80" stroke="white" stroke-width="1"/><line x1="0" y1="160" x2="1200" y2="160" stroke="white" stroke-width="1"/><line x1="0" y1="240" x2="1200" y2="240" stroke="white" stroke-width="1"/><line x1="0" y1="320" x2="1200" y2="320" stroke="white" stroke-width="1"/><line x1="0" y1="400" x2="1200" y2="400" stroke="white" stroke-width="1"/><line x1="0" y1="480" x2="1200" y2="480" stroke="white" stroke-width="1"/><line x1="0" y1="560" x2="1200" y2="560" stroke="white" stroke-width="1"/>
  </g>

  <!-- Decorative -->
  <g>
    <circle cx="1025" cy="209" r="68" fill="none" stroke="white" stroke-width="2" opacity="0.09"/>
    <circle cx="1134" cy="263" r="33" fill="none" stroke="white" stroke-width="2" opacity="0.04"/>
    <circle cx="1093" cy="393" r="80" fill="none" stroke="white" stroke-width="2" opacity="0.06"/>
    <rect x="837" y="181" width="64" height="40" rx="4" fill="none" stroke="white" stroke-width="1.5" opacity="0.03" transform="rotate(27, 869, 201)"/>
    <rect x="1086" y="171" width="45" height="79" rx="4" fill="none" stroke="white" stroke-width="1.5" opacity="0.08" transform="rotate(7, 1108, 210)"/>
    <circle cx="933" cy="318" r="2" fill="white" opacity="0.05"/>
    <circle cx="571" cy="80" r="4" fill="white" opacity="0.05"/>
    <circle cx="955" cy="317" r="5" fill="white" opacity="0.05"/>
    <circle cx="738" cy="259" r="4" fill="white" opacity="0.05"/>
    <circle cx="291" cy="387" r="2" fill="white" opacity="0.05"/>
    <circle cx="363" cy="399" r="3" fill="white" opacity="0.05"/>
    <circle cx="393" cy="471" r="2" fill="white" opacity="0.05"/>
    <circle cx="544" cy="188" r="3" fill="white" opacity="0.05"/>
    <line x1="636" y1="166" x2="891" y2="421" stroke="white" stroke-width="1" opacity="0.07"/>
    <line x1="580" y1="189" x2="798" y2="407" stroke="white" stroke-width="1" opacity="0.03"/>
    <path d="M803 385 Q903 305 1003 405 Q1103 505 953 565" fill="none" stroke="white" stroke-width="1.5" opacity="0.04"/>
  </g>

  <!-- Bottom fade -->
  <rect y="410" width="1200" height="220" fill="url(#bottom-fade)"/>

  <!-- Badge -->
  <g transform="translate(60, 50)">
    <rect width="120" height="32" rx="16" fill="white" opacity="0.15"/>
    <text x="60" y="21" text-anchor="middle" font-family="system-ui, -apple-system, sans-serif" font-size="13" font-weight="600" fill="white" opacity="0.9">FindUtils</text>
  </g>

  <!-- Accent line -->
  <rect x="60" y="450" width="80" height="4" rx="2" fill="#f9a8d4" opacity="0.7"/>

  <!-- Title -->
  <text x="60" y="520" font-family="system-ui, -apple-system, sans-serif" font-size="48" font-weight="700" fill="white" letter-spacing="-1">
    Instagram Post Generator
  </text>

  <!-- Subtitle -->
  <text x="60" y="570" font-family="system-ui, -apple-system, sans-serif" font-size="22" fill="white" opacity="0.8">
    Create realistic mock Instagram posts for marketing, content creation, and en...
  </text>
</svg>