<svg xmlns="http://www.w3.org/2000/svg" width="1200" height="630" viewBox="0 0 1200 630">
  <defs>
    <linearGradient id="bg" x1="0%" y1="0%" x2="100%" y2="100%">
      <stop offset="0%" stop-color="#1a1a2e"/>
      <stop offset="50%" stop-color="#16213e"/>
      <stop offset="100%" stop-color="#0f3460"/>
    </linearGradient>
    <radialGradient id="glow" cx="30%" cy="40%" r="70%">
      <stop offset="0%" stop-color="white" stop-opacity="0.08"/>
      <stop offset="100%" stop-color="white" stop-opacity="0"/>
    </radialGradient>
    <linearGradient id="bottom-fade" x1="0%" y1="0%" x2="0%" y2="100%">
      <stop offset="0%" stop-color="#1a1a2e" stop-opacity="0"/>
      <stop offset="100%" stop-color="#1a1a2e" stop-opacity="0.7"/>
    </linearGradient>
  </defs>

  <rect width="1200" height="630" rx="16" fill="url(#bg)"/>
  <rect width="1200" height="630" rx="16" fill="url(#glow)"/>

  <!-- Grid -->
  <g opacity="0.025">
    <line x1="0" y1="0" x2="0" y2="630" stroke="white" stroke-width="1"/><line x1="80" y1="0" x2="80" y2="630" stroke="white" stroke-width="1"/><line x1="160" y1="0" x2="160" y2="630" stroke="white" stroke-width="1"/><line x1="240" y1="0" x2="240" y2="630" stroke="white" stroke-width="1"/><line x1="320" y1="0" x2="320" y2="630" stroke="white" stroke-width="1"/><line x1="400" y1="0" x2="400" y2="630" stroke="white" stroke-width="1"/><line x1="480" y1="0" x2="480" y2="630" stroke="white" stroke-width="1"/><line x1="560" y1="0" x2="560" y2="630" stroke="white" stroke-width="1"/><line x1="640" y1="0" x2="640" y2="630" stroke="white" stroke-width="1"/><line x1="720" y1="0" x2="720" y2="630" stroke="white" stroke-width="1"/><line x1="800" y1="0" x2="800" y2="630" stroke="white" stroke-width="1"/><line x1="880" y1="0" x2="880" y2="630" stroke="white" stroke-width="1"/><line x1="960" y1="0" x2="960" y2="630" stroke="white" stroke-width="1"/><line x1="1040" y1="0" x2="1040" y2="630" stroke="white" stroke-width="1"/><line x1="1120" y1="0" x2="1120" y2="630" stroke="white" stroke-width="1"/>
    <line x1="0" y1="0" x2="1200" y2="0" stroke="white" stroke-width="1"/><line x1="0" y1="80" x2="1200" y2="80" stroke="white" stroke-width="1"/><line x1="0" y1="160" x2="1200" y2="160" stroke="white" stroke-width="1"/><line x1="0" y1="240" x2="1200" y2="240" stroke="white" stroke-width="1"/><line x1="0" y1="320" x2="1200" y2="320" stroke="white" stroke-width="1"/><line x1="0" y1="400" x2="1200" y2="400" stroke="white" stroke-width="1"/><line x1="0" y1="480" x2="1200" y2="480" stroke="white" stroke-width="1"/><line x1="0" y1="560" x2="1200" y2="560" stroke="white" stroke-width="1"/>
  </g>

  <!-- Decorative -->
  <g>
    <circle cx="1004" cy="360" r="79" fill="none" stroke="white" stroke-width="2" opacity="0.06"/>
    <circle cx="766" cy="215" r="96" fill="none" stroke="white" stroke-width="2" opacity="0.06"/>
    <circle cx="857" cy="210" r="79" fill="none" stroke="white" stroke-width="2" opacity="0.04"/>
    <rect x="612" y="284" width="75" height="85" rx="4" fill="none" stroke="white" stroke-width="1.5" opacity="0.03" transform="rotate(34, 649, 326)"/>
    <rect x="618" y="376" width="92" height="113" rx="4" fill="none" stroke="white" stroke-width="1.5" opacity="0.04" transform="rotate(33, 664, 432)"/>
    <circle cx="1030" cy="88" r="5" fill="white" opacity="0.05"/>
    <circle cx="574" cy="189" r="3" fill="white" opacity="0.05"/>
    <circle cx="1069" cy="202" r="3" fill="white" opacity="0.05"/>
    <circle cx="638" cy="401" r="3" fill="white" opacity="0.05"/>
    <circle cx="566" cy="440" r="4" fill="white" opacity="0.05"/>
    <circle cx="777" cy="466" r="2" fill="white" opacity="0.05"/>
    <circle cx="569" cy="139" r="4" fill="white" opacity="0.05"/>
    <circle cx="689" cy="293" r="4" fill="white" opacity="0.05"/>
    <line x1="684" y1="78" x2="879" y2="273" stroke="white" stroke-width="1" opacity="0.07"/>
    <line x1="641" y1="73" x2="937" y2="369" stroke="white" stroke-width="1" opacity="0.07"/>
    <path d="M914 299 Q1014 219 1114 319 Q1214 419 1064 479" fill="none" stroke="white" stroke-width="1.5" opacity="0.04"/>
  </g>

  <!-- Bottom fade -->
  <rect y="410" width="1200" height="220" fill="url(#bottom-fade)"/>

  <!-- Badge -->
  <g transform="translate(60, 50)">
    <rect width="120" height="32" rx="16" fill="white" opacity="0.15"/>
    <text x="60" y="21" text-anchor="middle" font-family="system-ui, -apple-system, sans-serif" font-size="13" font-weight="600" fill="white" opacity="0.9">FindUtils</text>
  </g>

  <!-- Accent line -->
  <rect x="60" y="450" width="80" height="4" rx="2" fill="#e94560" opacity="0.7"/>

  <!-- Title -->
  <text x="60" y="520" font-family="system-ui, -apple-system, sans-serif" font-size="48" font-weight="700" fill="white" letter-spacing="-1">
    JQ Playground
  </text>

  <!-- Subtitle -->
  <text x="60" y="570" font-family="system-ui, -apple-system, sans-serif" font-size="22" fill="white" opacity="0.8">
    Query and transform JSON data with jq syntax in real-time.
  </text>
</svg>