<svg xmlns="http://www.w3.org/2000/svg" width="1200" height="630" viewBox="0 0 1200 630">
  <defs>
    <linearGradient id="bg" x1="0%" y1="0%" x2="100%" y2="100%">
      <stop offset="0%" stop-color="#0f766e"/>
      <stop offset="50%" stop-color="#0d9488"/>
      <stop offset="100%" stop-color="#2dd4bf"/>
    </linearGradient>
    <radialGradient id="glow" cx="30%" cy="40%" r="70%">
      <stop offset="0%" stop-color="white" stop-opacity="0.08"/>
      <stop offset="100%" stop-color="white" stop-opacity="0"/>
    </radialGradient>
    <linearGradient id="bottom-fade" x1="0%" y1="0%" x2="0%" y2="100%">
      <stop offset="0%" stop-color="#0f766e" stop-opacity="0"/>
      <stop offset="100%" stop-color="#0f766e" stop-opacity="0.7"/>
    </linearGradient>
  </defs>

  <rect width="1200" height="630" rx="16" fill="url(#bg)"/>
  <rect width="1200" height="630" rx="16" fill="url(#glow)"/>

  <!-- Grid -->
  <g opacity="0.025">
    <line x1="0" y1="0" x2="0" y2="630" stroke="white" stroke-width="1"/><line x1="80" y1="0" x2="80" y2="630" stroke="white" stroke-width="1"/><line x1="160" y1="0" x2="160" y2="630" stroke="white" stroke-width="1"/><line x1="240" y1="0" x2="240" y2="630" stroke="white" stroke-width="1"/><line x1="320" y1="0" x2="320" y2="630" stroke="white" stroke-width="1"/><line x1="400" y1="0" x2="400" y2="630" stroke="white" stroke-width="1"/><line x1="480" y1="0" x2="480" y2="630" stroke="white" stroke-width="1"/><line x1="560" y1="0" x2="560" y2="630" stroke="white" stroke-width="1"/><line x1="640" y1="0" x2="640" y2="630" stroke="white" stroke-width="1"/><line x1="720" y1="0" x2="720" y2="630" stroke="white" stroke-width="1"/><line x1="800" y1="0" x2="800" y2="630" stroke="white" stroke-width="1"/><line x1="880" y1="0" x2="880" y2="630" stroke="white" stroke-width="1"/><line x1="960" y1="0" x2="960" y2="630" stroke="white" stroke-width="1"/><line x1="1040" y1="0" x2="1040" y2="630" stroke="white" stroke-width="1"/><line x1="1120" y1="0" x2="1120" y2="630" stroke="white" stroke-width="1"/>
    <line x1="0" y1="0" x2="1200" y2="0" stroke="white" stroke-width="1"/><line x1="0" y1="80" x2="1200" y2="80" stroke="white" stroke-width="1"/><line x1="0" y1="160" x2="1200" y2="160" stroke="white" stroke-width="1"/><line x1="0" y1="240" x2="1200" y2="240" stroke="white" stroke-width="1"/><line x1="0" y1="320" x2="1200" y2="320" stroke="white" stroke-width="1"/><line x1="0" y1="400" x2="1200" y2="400" stroke="white" stroke-width="1"/><line x1="0" y1="480" x2="1200" y2="480" stroke="white" stroke-width="1"/><line x1="0" y1="560" x2="1200" y2="560" stroke="white" stroke-width="1"/>
  </g>

  <!-- Decorative -->
  <g>
    <circle cx="783" cy="303" r="82" fill="none" stroke="white" stroke-width="2" opacity="0.09"/>
    <circle cx="998" cy="304" r="36" fill="none" stroke="white" stroke-width="2" opacity="0.05"/>
    <circle cx="838" cy="224" r="100" fill="none" stroke="white" stroke-width="2" opacity="0.09"/>
    <rect x="612" y="268" width="42" height="118" rx="4" fill="none" stroke="white" stroke-width="1.5" opacity="0.04" transform="rotate(14, 633, 327)"/>
    <rect x="667" y="138" width="52" height="83" rx="4" fill="none" stroke="white" stroke-width="1.5" opacity="0.06" transform="rotate(34, 693, 179)"/>
    <circle cx="548" cy="146" r="4" fill="white" opacity="0.05"/>
    <circle cx="518" cy="415" r="4" fill="white" opacity="0.05"/>
    <circle cx="573" cy="110" r="4" fill="white" opacity="0.05"/>
    <circle cx="145" cy="215" r="5" fill="white" opacity="0.05"/>
    <circle cx="889" cy="469" r="5" fill="white" opacity="0.05"/>
    <circle cx="722" cy="445" r="4" fill="white" opacity="0.05"/>
    <circle cx="580" cy="466" r="5" fill="white" opacity="0.05"/>
    <circle cx="176" cy="89" r="2" fill="white" opacity="0.05"/>
    <line x1="924" y1="211" x2="1202" y2="489" stroke="white" stroke-width="1" opacity="0.07"/>
    <line x1="673" y1="241" x2="871" y2="439" stroke="white" stroke-width="1" opacity="0.04"/>
    <path d="M780 179 Q880 99 980 199 Q1080 299 930 359" fill="none" stroke="white" stroke-width="1.5" opacity="0.04"/>
  </g>

  <!-- Bottom fade -->
  <rect y="410" width="1200" height="220" fill="url(#bottom-fade)"/>

  <!-- Badge -->
  <g transform="translate(60, 50)">
    <rect width="120" height="32" rx="16" fill="white" opacity="0.15"/>
    <text x="60" y="21" text-anchor="middle" font-family="system-ui, -apple-system, sans-serif" font-size="13" font-weight="600" fill="white" opacity="0.9">FindUtils</text>
  </g>

  <!-- Accent line -->
  <rect x="60" y="485" width="80" height="4" rx="2" fill="#5eead4" opacity="0.7"/>

  <!-- Title -->
  <text x="60" y="520" font-family="system-ui, -apple-system, sans-serif" font-size="48" font-weight="700" fill="white" letter-spacing="-1">
    JSON to Profile Card
  </text>

  <!-- Subtitle -->
  <text x="60" y="570" font-family="system-ui, -apple-system, sans-serif" font-size="22" fill="white" opacity="0.8">
    Generate professional profile cards for team pages, portfolios, and directori...
  </text>
</svg>