<svg xmlns="http://www.w3.org/2000/svg" width="1200" height="630" viewBox="0 0 1200 630">
  <defs>
    <linearGradient id="bg" x1="0%" y1="0%" x2="100%" y2="100%">
      <stop offset="0%" stop-color="#365314"/>
      <stop offset="50%" stop-color="#4d7c0f"/>
      <stop offset="100%" stop-color="#84cc16"/>
    </linearGradient>
    <radialGradient id="glow" cx="30%" cy="40%" r="70%">
      <stop offset="0%" stop-color="white" stop-opacity="0.08"/>
      <stop offset="100%" stop-color="white" stop-opacity="0"/>
    </radialGradient>
    <linearGradient id="bottom-fade" x1="0%" y1="0%" x2="0%" y2="100%">
      <stop offset="0%" stop-color="#365314" stop-opacity="0"/>
      <stop offset="100%" stop-color="#365314" stop-opacity="0.7"/>
    </linearGradient>
  </defs>

  <rect width="1200" height="630" rx="16" fill="url(#bg)"/>
  <rect width="1200" height="630" rx="16" fill="url(#glow)"/>

  <!-- Grid -->
  <g opacity="0.025">
    <line x1="0" y1="0" x2="0" y2="630" stroke="white" stroke-width="1"/><line x1="80" y1="0" x2="80" y2="630" stroke="white" stroke-width="1"/><line x1="160" y1="0" x2="160" y2="630" stroke="white" stroke-width="1"/><line x1="240" y1="0" x2="240" y2="630" stroke="white" stroke-width="1"/><line x1="320" y1="0" x2="320" y2="630" stroke="white" stroke-width="1"/><line x1="400" y1="0" x2="400" y2="630" stroke="white" stroke-width="1"/><line x1="480" y1="0" x2="480" y2="630" stroke="white" stroke-width="1"/><line x1="560" y1="0" x2="560" y2="630" stroke="white" stroke-width="1"/><line x1="640" y1="0" x2="640" y2="630" stroke="white" stroke-width="1"/><line x1="720" y1="0" x2="720" y2="630" stroke="white" stroke-width="1"/><line x1="800" y1="0" x2="800" y2="630" stroke="white" stroke-width="1"/><line x1="880" y1="0" x2="880" y2="630" stroke="white" stroke-width="1"/><line x1="960" y1="0" x2="960" y2="630" stroke="white" stroke-width="1"/><line x1="1040" y1="0" x2="1040" y2="630" stroke="white" stroke-width="1"/><line x1="1120" y1="0" x2="1120" y2="630" stroke="white" stroke-width="1"/>
    <line x1="0" y1="0" x2="1200" y2="0" stroke="white" stroke-width="1"/><line x1="0" y1="80" x2="1200" y2="80" stroke="white" stroke-width="1"/><line x1="0" y1="160" x2="1200" y2="160" stroke="white" stroke-width="1"/><line x1="0" y1="240" x2="1200" y2="240" stroke="white" stroke-width="1"/><line x1="0" y1="320" x2="1200" y2="320" stroke="white" stroke-width="1"/><line x1="0" y1="400" x2="1200" y2="400" stroke="white" stroke-width="1"/><line x1="0" y1="480" x2="1200" y2="480" stroke="white" stroke-width="1"/><line x1="0" y1="560" x2="1200" y2="560" stroke="white" stroke-width="1"/>
  </g>

  <!-- Decorative -->
  <g>
    <circle cx="875" cy="164" r="100" fill="none" stroke="white" stroke-width="2" opacity="0.05"/>
    <circle cx="740" cy="127" r="53" fill="none" stroke="white" stroke-width="2" opacity="0.07"/>
    <circle cx="1077" cy="358" r="38" fill="none" stroke="white" stroke-width="2" opacity="0.11"/>
    <rect x="698" y="85" width="103" height="55" rx="4" fill="none" stroke="white" stroke-width="1.5" opacity="0.03" transform="rotate(7, 749, 112)"/>
    <rect x="844" y="235" width="107" height="86" rx="4" fill="none" stroke="white" stroke-width="1.5" opacity="0.06" transform="rotate(41, 897, 278)"/>
    <circle cx="439" cy="443" r="5" fill="white" opacity="0.05"/>
    <circle cx="747" cy="101" r="5" fill="white" opacity="0.05"/>
    <circle cx="1000" cy="464" r="3" fill="white" opacity="0.05"/>
    <circle cx="140" cy="297" r="4" fill="white" opacity="0.05"/>
    <circle cx="836" cy="279" r="2" fill="white" opacity="0.05"/>
    <circle cx="432" cy="413" r="5" fill="white" opacity="0.05"/>
    <circle cx="328" cy="296" r="3" fill="white" opacity="0.05"/>
    <circle cx="699" cy="340" r="5" fill="white" opacity="0.05"/>
    <line x1="782" y1="106" x2="1046" y2="370" stroke="white" stroke-width="1" opacity="0.03"/>
    <line x1="512" y1="119" x2="777" y2="384" stroke="white" stroke-width="1" opacity="0.07"/>
    <path d="M723 367 Q823 287 923 387 Q1023 487 873 547" fill="none" stroke="white" stroke-width="1.5" opacity="0.04"/>
  </g>

  <!-- Bottom fade -->
  <rect y="410" width="1200" height="220" fill="url(#bottom-fade)"/>

  <!-- Badge -->
  <g transform="translate(60, 50)">
    <rect width="120" height="32" rx="16" fill="white" opacity="0.15"/>
    <text x="60" y="21" text-anchor="middle" font-family="system-ui, -apple-system, sans-serif" font-size="13" font-weight="600" fill="white" opacity="0.9">FindUtils</text>
  </g>

  <!-- Accent line -->
  <rect x="60" y="485" width="80" height="4" rx="2" fill="#bef264" opacity="0.7"/>

  <!-- Title -->
  <text x="60" y="520" font-family="system-ui, -apple-system, sans-serif" font-size="48" font-weight="700" fill="white" letter-spacing="-1">
    JWT Security Validator
  </text>

  <!-- Subtitle -->
  <text x="60" y="570" font-family="system-ui, -apple-system, sans-serif" font-size="22" fill="white" opacity="0.8">
    Decode, validate, and analyze JSON Web Tokens for security vulnerabilities.
  </text>
</svg>