<svg xmlns="http://www.w3.org/2000/svg" width="1200" height="630" viewBox="0 0 1200 630">
  <defs>
    <linearGradient id="bg" x1="0%" y1="0%" x2="100%" y2="100%">
      <stop offset="0%" stop-color="#1e3a5f"/>
      <stop offset="50%" stop-color="#1d4ed8"/>
      <stop offset="100%" stop-color="#3b82f6"/>
    </linearGradient>
    <radialGradient id="glow" cx="30%" cy="40%" r="70%">
      <stop offset="0%" stop-color="white" stop-opacity="0.08"/>
      <stop offset="100%" stop-color="white" stop-opacity="0"/>
    </radialGradient>
    <linearGradient id="bottom-fade" x1="0%" y1="0%" x2="0%" y2="100%">
      <stop offset="0%" stop-color="#1e3a5f" stop-opacity="0"/>
      <stop offset="100%" stop-color="#1e3a5f" stop-opacity="0.7"/>
    </linearGradient>
  </defs>

  <rect width="1200" height="630" rx="16" fill="url(#bg)"/>
  <rect width="1200" height="630" rx="16" fill="url(#glow)"/>

  <!-- Grid -->
  <g opacity="0.025">
    <line x1="0" y1="0" x2="0" y2="630" stroke="white" stroke-width="1"/><line x1="80" y1="0" x2="80" y2="630" stroke="white" stroke-width="1"/><line x1="160" y1="0" x2="160" y2="630" stroke="white" stroke-width="1"/><line x1="240" y1="0" x2="240" y2="630" stroke="white" stroke-width="1"/><line x1="320" y1="0" x2="320" y2="630" stroke="white" stroke-width="1"/><line x1="400" y1="0" x2="400" y2="630" stroke="white" stroke-width="1"/><line x1="480" y1="0" x2="480" y2="630" stroke="white" stroke-width="1"/><line x1="560" y1="0" x2="560" y2="630" stroke="white" stroke-width="1"/><line x1="640" y1="0" x2="640" y2="630" stroke="white" stroke-width="1"/><line x1="720" y1="0" x2="720" y2="630" stroke="white" stroke-width="1"/><line x1="800" y1="0" x2="800" y2="630" stroke="white" stroke-width="1"/><line x1="880" y1="0" x2="880" y2="630" stroke="white" stroke-width="1"/><line x1="960" y1="0" x2="960" y2="630" stroke="white" stroke-width="1"/><line x1="1040" y1="0" x2="1040" y2="630" stroke="white" stroke-width="1"/><line x1="1120" y1="0" x2="1120" y2="630" stroke="white" stroke-width="1"/>
    <line x1="0" y1="0" x2="1200" y2="0" stroke="white" stroke-width="1"/><line x1="0" y1="80" x2="1200" y2="80" stroke="white" stroke-width="1"/><line x1="0" y1="160" x2="1200" y2="160" stroke="white" stroke-width="1"/><line x1="0" y1="240" x2="1200" y2="240" stroke="white" stroke-width="1"/><line x1="0" y1="320" x2="1200" y2="320" stroke="white" stroke-width="1"/><line x1="0" y1="400" x2="1200" y2="400" stroke="white" stroke-width="1"/><line x1="0" y1="480" x2="1200" y2="480" stroke="white" stroke-width="1"/><line x1="0" y1="560" x2="1200" y2="560" stroke="white" stroke-width="1"/>
  </g>

  <!-- Decorative -->
  <g>
    <circle cx="828" cy="152" r="44" fill="none" stroke="white" stroke-width="2" opacity="0.05"/>
    <circle cx="955" cy="119" r="49" fill="none" stroke="white" stroke-width="2" opacity="0.04"/>
    <circle cx="1127" cy="192" r="44" fill="none" stroke="white" stroke-width="2" opacity="0.10"/>
    <rect x="667" y="336" width="90" height="95" rx="4" fill="none" stroke="white" stroke-width="1.5" opacity="0.05" transform="rotate(1, 712, 383)"/>
    <rect x="741" y="224" width="82" height="53" rx="4" fill="none" stroke="white" stroke-width="1.5" opacity="0.05" transform="rotate(30, 782, 250)"/>
    <circle cx="156" cy="265" r="5" fill="white" opacity="0.05"/>
    <circle cx="130" cy="447" r="5" fill="white" opacity="0.05"/>
    <circle cx="138" cy="312" r="2" fill="white" opacity="0.05"/>
    <circle cx="451" cy="429" r="4" fill="white" opacity="0.05"/>
    <circle cx="366" cy="93" r="3" fill="white" opacity="0.05"/>
    <circle cx="335" cy="239" r="4" fill="white" opacity="0.05"/>
    <circle cx="363" cy="324" r="4" fill="white" opacity="0.05"/>
    <circle cx="1081" cy="400" r="3" fill="white" opacity="0.05"/>
    <line x1="514" y1="220" x2="732" y2="438" stroke="white" stroke-width="1" opacity="0.07"/>
    <line x1="543" y1="210" x2="768" y2="435" stroke="white" stroke-width="1" opacity="0.07"/>
    <path d="M639 308 Q739 228 839 328 Q939 428 789 488" fill="none" stroke="white" stroke-width="1.5" opacity="0.04"/>
  </g>

  <!-- Bottom fade -->
  <rect y="410" width="1200" height="220" fill="url(#bottom-fade)"/>

  <!-- Badge -->
  <g transform="translate(60, 50)">
    <rect width="120" height="32" rx="16" fill="white" opacity="0.15"/>
    <text x="60" y="21" text-anchor="middle" font-family="system-ui, -apple-system, sans-serif" font-size="13" font-weight="600" fill="white" opacity="0.9">FindUtils</text>
  </g>

  <!-- Accent line -->
  <rect x="60" y="450" width="80" height="4" rx="2" fill="#93c5fd" opacity="0.7"/>

  <!-- Title -->
  <text x="60" y="520" font-family="system-ui, -apple-system, sans-serif" font-size="48" font-weight="700" fill="white" letter-spacing="-1">
    Lesson Plan Template
  </text>

  <!-- Subtitle -->
  <text x="60" y="570" font-family="system-ui, -apple-system, sans-serif" font-size="22" fill="white" opacity="0.8">
    Create structured lesson plans with objectives, materials, timed activities, ...
  </text>
</svg>