<svg xmlns="http://www.w3.org/2000/svg" width="1200" height="630" viewBox="0 0 1200 630">
  <defs>
    <linearGradient id="bg" x1="0%" y1="0%" x2="100%" y2="100%">
      <stop offset="0%" stop-color="#2d1b69"/>
      <stop offset="50%" stop-color="#5b21b6"/>
      <stop offset="100%" stop-color="#8b5cf6"/>
    </linearGradient>
    <radialGradient id="glow" cx="30%" cy="40%" r="70%">
      <stop offset="0%" stop-color="white" stop-opacity="0.08"/>
      <stop offset="100%" stop-color="white" stop-opacity="0"/>
    </radialGradient>
    <linearGradient id="bottom-fade" x1="0%" y1="0%" x2="0%" y2="100%">
      <stop offset="0%" stop-color="#2d1b69" stop-opacity="0"/>
      <stop offset="100%" stop-color="#2d1b69" stop-opacity="0.7"/>
    </linearGradient>
  </defs>

  <rect width="1200" height="630" rx="16" fill="url(#bg)"/>
  <rect width="1200" height="630" rx="16" fill="url(#glow)"/>

  <!-- Grid -->
  <g opacity="0.025">
    <line x1="0" y1="0" x2="0" y2="630" stroke="white" stroke-width="1"/><line x1="80" y1="0" x2="80" y2="630" stroke="white" stroke-width="1"/><line x1="160" y1="0" x2="160" y2="630" stroke="white" stroke-width="1"/><line x1="240" y1="0" x2="240" y2="630" stroke="white" stroke-width="1"/><line x1="320" y1="0" x2="320" y2="630" stroke="white" stroke-width="1"/><line x1="400" y1="0" x2="400" y2="630" stroke="white" stroke-width="1"/><line x1="480" y1="0" x2="480" y2="630" stroke="white" stroke-width="1"/><line x1="560" y1="0" x2="560" y2="630" stroke="white" stroke-width="1"/><line x1="640" y1="0" x2="640" y2="630" stroke="white" stroke-width="1"/><line x1="720" y1="0" x2="720" y2="630" stroke="white" stroke-width="1"/><line x1="800" y1="0" x2="800" y2="630" stroke="white" stroke-width="1"/><line x1="880" y1="0" x2="880" y2="630" stroke="white" stroke-width="1"/><line x1="960" y1="0" x2="960" y2="630" stroke="white" stroke-width="1"/><line x1="1040" y1="0" x2="1040" y2="630" stroke="white" stroke-width="1"/><line x1="1120" y1="0" x2="1120" y2="630" stroke="white" stroke-width="1"/>
    <line x1="0" y1="0" x2="1200" y2="0" stroke="white" stroke-width="1"/><line x1="0" y1="80" x2="1200" y2="80" stroke="white" stroke-width="1"/><line x1="0" y1="160" x2="1200" y2="160" stroke="white" stroke-width="1"/><line x1="0" y1="240" x2="1200" y2="240" stroke="white" stroke-width="1"/><line x1="0" y1="320" x2="1200" y2="320" stroke="white" stroke-width="1"/><line x1="0" y1="400" x2="1200" y2="400" stroke="white" stroke-width="1"/><line x1="0" y1="480" x2="1200" y2="480" stroke="white" stroke-width="1"/><line x1="0" y1="560" x2="1200" y2="560" stroke="white" stroke-width="1"/>
  </g>

  <!-- Decorative -->
  <g>
    <circle cx="1097" cy="347" r="81" fill="none" stroke="white" stroke-width="2" opacity="0.04"/>
    <circle cx="758" cy="407" r="106" fill="none" stroke="white" stroke-width="2" opacity="0.08"/>
    <circle cx="1123" cy="234" r="100" fill="none" stroke="white" stroke-width="2" opacity="0.04"/>
    <rect x="979" y="273" width="88" height="102" rx="4" fill="none" stroke="white" stroke-width="1.5" opacity="0.07" transform="rotate(3, 1023, 324)"/>
    <rect x="1096" y="204" width="103" height="83" rx="4" fill="none" stroke="white" stroke-width="1.5" opacity="0.06" transform="rotate(5, 1147, 245)"/>
    <circle cx="251" cy="185" r="4" fill="white" opacity="0.05"/>
    <circle cx="1078" cy="126" r="3" fill="white" opacity="0.05"/>
    <circle cx="153" cy="416" r="3" fill="white" opacity="0.05"/>
    <circle cx="420" cy="191" r="5" fill="white" opacity="0.05"/>
    <circle cx="999" cy="98" r="4" fill="white" opacity="0.05"/>
    <circle cx="723" cy="378" r="4" fill="white" opacity="0.05"/>
    <circle cx="548" cy="154" r="3" fill="white" opacity="0.05"/>
    <circle cx="650" cy="390" r="4" fill="white" opacity="0.05"/>
    <line x1="821" y1="86" x2="1025" y2="290" stroke="white" stroke-width="1" opacity="0.06"/>
    <line x1="708" y1="246" x2="979" y2="517" stroke="white" stroke-width="1" opacity="0.05"/>
    <path d="M681 166 Q781 86 881 186 Q981 286 831 346" fill="none" stroke="white" stroke-width="1.5" opacity="0.04"/>
  </g>

  <!-- Bottom fade -->
  <rect y="410" width="1200" height="220" fill="url(#bottom-fade)"/>

  <!-- Badge -->
  <g transform="translate(60, 50)">
    <rect width="120" height="32" rx="16" fill="white" opacity="0.15"/>
    <text x="60" y="21" text-anchor="middle" font-family="system-ui, -apple-system, sans-serif" font-size="13" font-weight="600" fill="white" opacity="0.9">FindUtils</text>
  </g>

  <!-- Accent line -->
  <rect x="60" y="450" width="80" height="4" rx="2" fill="#c4b5fd" opacity="0.7"/>

  <!-- Title -->
  <text x="60" y="520" font-family="system-ui, -apple-system, sans-serif" font-size="48" font-weight="700" fill="white" letter-spacing="-1">
    Media Info Viewer
  </text>

  <!-- Subtitle -->
  <text x="60" y="570" font-family="system-ui, -apple-system, sans-serif" font-size="22" fill="white" opacity="0.8">
    View comprehensive metadata for images, videos, and audio files.
  </text>
</svg>