<svg xmlns="http://www.w3.org/2000/svg" width="1200" height="630" viewBox="0 0 1200 630">
  <defs>
    <linearGradient id="bg" x1="0%" y1="0%" x2="100%" y2="100%">
      <stop offset="0%" stop-color="#1a1a2e"/>
      <stop offset="50%" stop-color="#16213e"/>
      <stop offset="100%" stop-color="#0f3460"/>
    </linearGradient>
    <radialGradient id="glow" cx="30%" cy="40%" r="70%">
      <stop offset="0%" stop-color="white" stop-opacity="0.08"/>
      <stop offset="100%" stop-color="white" stop-opacity="0"/>
    </radialGradient>
    <linearGradient id="bottom-fade" x1="0%" y1="0%" x2="0%" y2="100%">
      <stop offset="0%" stop-color="#1a1a2e" stop-opacity="0"/>
      <stop offset="100%" stop-color="#1a1a2e" stop-opacity="0.7"/>
    </linearGradient>
  </defs>

  <rect width="1200" height="630" rx="16" fill="url(#bg)"/>
  <rect width="1200" height="630" rx="16" fill="url(#glow)"/>

  <!-- Grid -->
  <g opacity="0.025">
    <line x1="0" y1="0" x2="0" y2="630" stroke="white" stroke-width="1"/><line x1="80" y1="0" x2="80" y2="630" stroke="white" stroke-width="1"/><line x1="160" y1="0" x2="160" y2="630" stroke="white" stroke-width="1"/><line x1="240" y1="0" x2="240" y2="630" stroke="white" stroke-width="1"/><line x1="320" y1="0" x2="320" y2="630" stroke="white" stroke-width="1"/><line x1="400" y1="0" x2="400" y2="630" stroke="white" stroke-width="1"/><line x1="480" y1="0" x2="480" y2="630" stroke="white" stroke-width="1"/><line x1="560" y1="0" x2="560" y2="630" stroke="white" stroke-width="1"/><line x1="640" y1="0" x2="640" y2="630" stroke="white" stroke-width="1"/><line x1="720" y1="0" x2="720" y2="630" stroke="white" stroke-width="1"/><line x1="800" y1="0" x2="800" y2="630" stroke="white" stroke-width="1"/><line x1="880" y1="0" x2="880" y2="630" stroke="white" stroke-width="1"/><line x1="960" y1="0" x2="960" y2="630" stroke="white" stroke-width="1"/><line x1="1040" y1="0" x2="1040" y2="630" stroke="white" stroke-width="1"/><line x1="1120" y1="0" x2="1120" y2="630" stroke="white" stroke-width="1"/>
    <line x1="0" y1="0" x2="1200" y2="0" stroke="white" stroke-width="1"/><line x1="0" y1="80" x2="1200" y2="80" stroke="white" stroke-width="1"/><line x1="0" y1="160" x2="1200" y2="160" stroke="white" stroke-width="1"/><line x1="0" y1="240" x2="1200" y2="240" stroke="white" stroke-width="1"/><line x1="0" y1="320" x2="1200" y2="320" stroke="white" stroke-width="1"/><line x1="0" y1="400" x2="1200" y2="400" stroke="white" stroke-width="1"/><line x1="0" y1="480" x2="1200" y2="480" stroke="white" stroke-width="1"/><line x1="0" y1="560" x2="1200" y2="560" stroke="white" stroke-width="1"/>
  </g>

  <!-- Decorative -->
  <g>
    <circle cx="980" cy="403" r="99" fill="none" stroke="white" stroke-width="2" opacity="0.05"/>
    <circle cx="1136" cy="434" r="61" fill="none" stroke="white" stroke-width="2" opacity="0.09"/>
    <circle cx="736" cy="104" r="75" fill="none" stroke="white" stroke-width="2" opacity="0.05"/>
    <rect x="1099" y="112" width="71" height="86" rx="4" fill="none" stroke="white" stroke-width="1.5" opacity="0.03" transform="rotate(41, 1134, 155)"/>
    <rect x="623" y="223" width="65" height="93" rx="4" fill="none" stroke="white" stroke-width="1.5" opacity="0.07" transform="rotate(1, 655, 269)"/>
    <circle cx="428" cy="104" r="4" fill="white" opacity="0.05"/>
    <circle cx="117" cy="266" r="2" fill="white" opacity="0.05"/>
    <circle cx="395" cy="99" r="2" fill="white" opacity="0.05"/>
    <circle cx="929" cy="108" r="3" fill="white" opacity="0.05"/>
    <circle cx="669" cy="389" r="5" fill="white" opacity="0.05"/>
    <circle cx="990" cy="270" r="4" fill="white" opacity="0.05"/>
    <circle cx="271" cy="210" r="4" fill="white" opacity="0.05"/>
    <circle cx="740" cy="145" r="2" fill="white" opacity="0.05"/>
    <line x1="506" y1="103" x2="693" y2="290" stroke="white" stroke-width="1" opacity="0.05"/>
    <line x1="937" y1="216" x2="1087" y2="366" stroke="white" stroke-width="1" opacity="0.05"/>
    <path d="M980 284 Q1080 204 1180 304 Q1280 404 1130 464" fill="none" stroke="white" stroke-width="1.5" opacity="0.04"/>
  </g>

  <!-- Bottom fade -->
  <rect y="410" width="1200" height="220" fill="url(#bottom-fade)"/>

  <!-- Badge -->
  <g transform="translate(60, 50)">
    <rect width="120" height="32" rx="16" fill="white" opacity="0.15"/>
    <text x="60" y="21" text-anchor="middle" font-family="system-ui, -apple-system, sans-serif" font-size="13" font-weight="600" fill="white" opacity="0.9">FindUtils</text>
  </g>

  <!-- Accent line -->
  <rect x="60" y="485" width="80" height="4" rx="2" fill="#e94560" opacity="0.7"/>

  <!-- Title -->
  <text x="60" y="520" font-family="system-ui, -apple-system, sans-serif" font-size="48" font-weight="700" fill="white" letter-spacing="-1">
    Page Title
  </text>

  <!-- Subtitle -->
  <text x="60" y="570" font-family="system-ui, -apple-system, sans-serif" font-size="22" fill="white" opacity="0.8">
    Generate SEO-optimized meta tags, Open Graph, and Twitter Card tags instantly.
  </text>
</svg>