<svg xmlns="http://www.w3.org/2000/svg" width="1200" height="630" viewBox="0 0 1200 630">
  <defs>
    <linearGradient id="bg" x1="0%" y1="0%" x2="100%" y2="100%">
      <stop offset="0%" stop-color="#1e3a5f"/>
      <stop offset="50%" stop-color="#1d4ed8"/>
      <stop offset="100%" stop-color="#3b82f6"/>
    </linearGradient>
    <radialGradient id="glow" cx="30%" cy="40%" r="70%">
      <stop offset="0%" stop-color="white" stop-opacity="0.08"/>
      <stop offset="100%" stop-color="white" stop-opacity="0"/>
    </radialGradient>
    <linearGradient id="bottom-fade" x1="0%" y1="0%" x2="0%" y2="100%">
      <stop offset="0%" stop-color="#1e3a5f" stop-opacity="0"/>
      <stop offset="100%" stop-color="#1e3a5f" stop-opacity="0.7"/>
    </linearGradient>
  </defs>

  <rect width="1200" height="630" rx="16" fill="url(#bg)"/>
  <rect width="1200" height="630" rx="16" fill="url(#glow)"/>

  <!-- Grid -->
  <g opacity="0.025">
    <line x1="0" y1="0" x2="0" y2="630" stroke="white" stroke-width="1"/><line x1="80" y1="0" x2="80" y2="630" stroke="white" stroke-width="1"/><line x1="160" y1="0" x2="160" y2="630" stroke="white" stroke-width="1"/><line x1="240" y1="0" x2="240" y2="630" stroke="white" stroke-width="1"/><line x1="320" y1="0" x2="320" y2="630" stroke="white" stroke-width="1"/><line x1="400" y1="0" x2="400" y2="630" stroke="white" stroke-width="1"/><line x1="480" y1="0" x2="480" y2="630" stroke="white" stroke-width="1"/><line x1="560" y1="0" x2="560" y2="630" stroke="white" stroke-width="1"/><line x1="640" y1="0" x2="640" y2="630" stroke="white" stroke-width="1"/><line x1="720" y1="0" x2="720" y2="630" stroke="white" stroke-width="1"/><line x1="800" y1="0" x2="800" y2="630" stroke="white" stroke-width="1"/><line x1="880" y1="0" x2="880" y2="630" stroke="white" stroke-width="1"/><line x1="960" y1="0" x2="960" y2="630" stroke="white" stroke-width="1"/><line x1="1040" y1="0" x2="1040" y2="630" stroke="white" stroke-width="1"/><line x1="1120" y1="0" x2="1120" y2="630" stroke="white" stroke-width="1"/>
    <line x1="0" y1="0" x2="1200" y2="0" stroke="white" stroke-width="1"/><line x1="0" y1="80" x2="1200" y2="80" stroke="white" stroke-width="1"/><line x1="0" y1="160" x2="1200" y2="160" stroke="white" stroke-width="1"/><line x1="0" y1="240" x2="1200" y2="240" stroke="white" stroke-width="1"/><line x1="0" y1="320" x2="1200" y2="320" stroke="white" stroke-width="1"/><line x1="0" y1="400" x2="1200" y2="400" stroke="white" stroke-width="1"/><line x1="0" y1="480" x2="1200" y2="480" stroke="white" stroke-width="1"/><line x1="0" y1="560" x2="1200" y2="560" stroke="white" stroke-width="1"/>
  </g>

  <!-- Decorative -->
  <g>
    <circle cx="781" cy="188" r="57" fill="none" stroke="white" stroke-width="2" opacity="0.10"/>
    <circle cx="704" cy="261" r="82" fill="none" stroke="white" stroke-width="2" opacity="0.09"/>
    <circle cx="1078" cy="248" r="86" fill="none" stroke="white" stroke-width="2" opacity="0.07"/>
    <rect x="645" y="339" width="71" height="64" rx="4" fill="none" stroke="white" stroke-width="1.5" opacity="0.06" transform="rotate(7, 680, 371)"/>
    <rect x="1030" y="90" width="92" height="104" rx="4" fill="none" stroke="white" stroke-width="1.5" opacity="0.06" transform="rotate(25, 1076, 142)"/>
    <circle cx="337" cy="361" r="5" fill="white" opacity="0.05"/>
    <circle cx="609" cy="95" r="3" fill="white" opacity="0.05"/>
    <circle cx="868" cy="99" r="3" fill="white" opacity="0.05"/>
    <circle cx="538" cy="151" r="4" fill="white" opacity="0.05"/>
    <circle cx="908" cy="116" r="2" fill="white" opacity="0.05"/>
    <circle cx="547" cy="177" r="5" fill="white" opacity="0.05"/>
    <circle cx="499" cy="303" r="3" fill="white" opacity="0.05"/>
    <circle cx="313" cy="464" r="3" fill="white" opacity="0.05"/>
    <line x1="1032" y1="236" x2="1249" y2="453" stroke="white" stroke-width="1" opacity="0.03"/>
    <line x1="658" y1="129" x2="788" y2="259" stroke="white" stroke-width="1" opacity="0.06"/>
    <path d="M623 279 Q723 199 823 299 Q923 399 773 459" fill="none" stroke="white" stroke-width="1.5" opacity="0.04"/>
  </g>

  <!-- Bottom fade -->
  <rect y="410" width="1200" height="220" fill="url(#bottom-fade)"/>

  <!-- Badge -->
  <g transform="translate(60, 50)">
    <rect width="120" height="32" rx="16" fill="white" opacity="0.15"/>
    <text x="60" y="21" text-anchor="middle" font-family="system-ui, -apple-system, sans-serif" font-size="13" font-weight="600" fill="white" opacity="0.9">FindUtils</text>
  </g>

  <!-- Accent line -->
  <rect x="60" y="450" width="80" height="4" rx="2" fill="#93c5fd" opacity="0.7"/>

  <!-- Title -->
  <text x="60" y="520" font-family="system-ui, -apple-system, sans-serif" font-size="48" font-weight="700" fill="white" letter-spacing="-1">
    Mind Map Maker
  </text>

  <!-- Subtitle -->
  <text x="60" y="570" font-family="system-ui, -apple-system, sans-serif" font-size="22" fill="white" opacity="0.8">
    Create beautiful mind maps with drag-and-drop nodes.
  </text>
</svg>