<svg xmlns="http://www.w3.org/2000/svg" width="1200" height="630" viewBox="0 0 1200 630">
  <defs>
    <linearGradient id="bg" x1="0%" y1="0%" x2="100%" y2="100%">
      <stop offset="0%" stop-color="#7c2d12"/>
      <stop offset="50%" stop-color="#c2410c"/>
      <stop offset="100%" stop-color="#f97316"/>
    </linearGradient>
    <radialGradient id="glow" cx="30%" cy="40%" r="70%">
      <stop offset="0%" stop-color="white" stop-opacity="0.08"/>
      <stop offset="100%" stop-color="white" stop-opacity="0"/>
    </radialGradient>
    <linearGradient id="bottom-fade" x1="0%" y1="0%" x2="0%" y2="100%">
      <stop offset="0%" stop-color="#7c2d12" stop-opacity="0"/>
      <stop offset="100%" stop-color="#7c2d12" stop-opacity="0.7"/>
    </linearGradient>
  </defs>

  <rect width="1200" height="630" rx="16" fill="url(#bg)"/>
  <rect width="1200" height="630" rx="16" fill="url(#glow)"/>

  <!-- Grid -->
  <g opacity="0.025">
    <line x1="0" y1="0" x2="0" y2="630" stroke="white" stroke-width="1"/><line x1="80" y1="0" x2="80" y2="630" stroke="white" stroke-width="1"/><line x1="160" y1="0" x2="160" y2="630" stroke="white" stroke-width="1"/><line x1="240" y1="0" x2="240" y2="630" stroke="white" stroke-width="1"/><line x1="320" y1="0" x2="320" y2="630" stroke="white" stroke-width="1"/><line x1="400" y1="0" x2="400" y2="630" stroke="white" stroke-width="1"/><line x1="480" y1="0" x2="480" y2="630" stroke="white" stroke-width="1"/><line x1="560" y1="0" x2="560" y2="630" stroke="white" stroke-width="1"/><line x1="640" y1="0" x2="640" y2="630" stroke="white" stroke-width="1"/><line x1="720" y1="0" x2="720" y2="630" stroke="white" stroke-width="1"/><line x1="800" y1="0" x2="800" y2="630" stroke="white" stroke-width="1"/><line x1="880" y1="0" x2="880" y2="630" stroke="white" stroke-width="1"/><line x1="960" y1="0" x2="960" y2="630" stroke="white" stroke-width="1"/><line x1="1040" y1="0" x2="1040" y2="630" stroke="white" stroke-width="1"/><line x1="1120" y1="0" x2="1120" y2="630" stroke="white" stroke-width="1"/>
    <line x1="0" y1="0" x2="1200" y2="0" stroke="white" stroke-width="1"/><line x1="0" y1="80" x2="1200" y2="80" stroke="white" stroke-width="1"/><line x1="0" y1="160" x2="1200" y2="160" stroke="white" stroke-width="1"/><line x1="0" y1="240" x2="1200" y2="240" stroke="white" stroke-width="1"/><line x1="0" y1="320" x2="1200" y2="320" stroke="white" stroke-width="1"/><line x1="0" y1="400" x2="1200" y2="400" stroke="white" stroke-width="1"/><line x1="0" y1="480" x2="1200" y2="480" stroke="white" stroke-width="1"/><line x1="0" y1="560" x2="1200" y2="560" stroke="white" stroke-width="1"/>
  </g>

  <!-- Decorative -->
  <g>
    <circle cx="728" cy="399" r="72" fill="none" stroke="white" stroke-width="2" opacity="0.05"/>
    <circle cx="762" cy="147" r="35" fill="none" stroke="white" stroke-width="2" opacity="0.11"/>
    <circle cx="1119" cy="259" r="90" fill="none" stroke="white" stroke-width="2" opacity="0.07"/>
    <rect x="933" y="187" width="80" height="110" rx="4" fill="none" stroke="white" stroke-width="1.5" opacity="0.05" transform="rotate(37, 973, 242)"/>
    <rect x="868" y="315" width="56" height="111" rx="4" fill="none" stroke="white" stroke-width="1.5" opacity="0.08" transform="rotate(25, 896, 370)"/>
    <circle cx="155" cy="165" r="4" fill="white" opacity="0.05"/>
    <circle cx="536" cy="392" r="5" fill="white" opacity="0.05"/>
    <circle cx="868" cy="249" r="3" fill="white" opacity="0.05"/>
    <circle cx="662" cy="374" r="2" fill="white" opacity="0.05"/>
    <circle cx="464" cy="250" r="5" fill="white" opacity="0.05"/>
    <circle cx="997" cy="169" r="2" fill="white" opacity="0.05"/>
    <circle cx="290" cy="114" r="3" fill="white" opacity="0.05"/>
    <circle cx="816" cy="88" r="5" fill="white" opacity="0.05"/>
    <line x1="808" y1="117" x2="1025" y2="334" stroke="white" stroke-width="1" opacity="0.04"/>
    <line x1="567" y1="141" x2="739" y2="313" stroke="white" stroke-width="1" opacity="0.04"/>
    <path d="M902 198 Q1002 118 1102 218 Q1202 318 1052 378" fill="none" stroke="white" stroke-width="1.5" opacity="0.04"/>
  </g>

  <!-- Bottom fade -->
  <rect y="410" width="1200" height="220" fill="url(#bottom-fade)"/>

  <!-- Badge -->
  <g transform="translate(60, 50)">
    <rect width="120" height="32" rx="16" fill="white" opacity="0.15"/>
    <text x="60" y="21" text-anchor="middle" font-family="system-ui, -apple-system, sans-serif" font-size="13" font-weight="600" fill="white" opacity="0.9">FindUtils</text>
  </g>

  <!-- Accent line -->
  <rect x="60" y="485" width="80" height="4" rx="2" fill="#fdba74" opacity="0.7"/>

  <!-- Title -->
  <text x="60" y="520" font-family="system-ui, -apple-system, sans-serif" font-size="48" font-weight="700" fill="white" letter-spacing="-1">
    One Rep Max Calculator
  </text>

  <!-- Subtitle -->
  <text x="60" y="570" font-family="system-ui, -apple-system, sans-serif" font-size="22" fill="white" opacity="0.8">
    Calculate your estimated one-rep max (1RM) for any lift using multiple proven...
  </text>
</svg>