<svg xmlns="http://www.w3.org/2000/svg" width="1200" height="630" viewBox="0 0 1200 630">
  <defs>
    <linearGradient id="bg" x1="0%" y1="0%" x2="100%" y2="100%">
      <stop offset="0%" stop-color="#1c1917"/>
      <stop offset="50%" stop-color="#44403c"/>
      <stop offset="100%" stop-color="#78716c"/>
    </linearGradient>
    <radialGradient id="glow" cx="30%" cy="40%" r="70%">
      <stop offset="0%" stop-color="white" stop-opacity="0.08"/>
      <stop offset="100%" stop-color="white" stop-opacity="0"/>
    </radialGradient>
    <linearGradient id="bottom-fade" x1="0%" y1="0%" x2="0%" y2="100%">
      <stop offset="0%" stop-color="#1c1917" stop-opacity="0"/>
      <stop offset="100%" stop-color="#1c1917" stop-opacity="0.7"/>
    </linearGradient>
  </defs>

  <rect width="1200" height="630" rx="16" fill="url(#bg)"/>
  <rect width="1200" height="630" rx="16" fill="url(#glow)"/>

  <!-- Grid -->
  <g opacity="0.025">
    <line x1="0" y1="0" x2="0" y2="630" stroke="white" stroke-width="1"/><line x1="80" y1="0" x2="80" y2="630" stroke="white" stroke-width="1"/><line x1="160" y1="0" x2="160" y2="630" stroke="white" stroke-width="1"/><line x1="240" y1="0" x2="240" y2="630" stroke="white" stroke-width="1"/><line x1="320" y1="0" x2="320" y2="630" stroke="white" stroke-width="1"/><line x1="400" y1="0" x2="400" y2="630" stroke="white" stroke-width="1"/><line x1="480" y1="0" x2="480" y2="630" stroke="white" stroke-width="1"/><line x1="560" y1="0" x2="560" y2="630" stroke="white" stroke-width="1"/><line x1="640" y1="0" x2="640" y2="630" stroke="white" stroke-width="1"/><line x1="720" y1="0" x2="720" y2="630" stroke="white" stroke-width="1"/><line x1="800" y1="0" x2="800" y2="630" stroke="white" stroke-width="1"/><line x1="880" y1="0" x2="880" y2="630" stroke="white" stroke-width="1"/><line x1="960" y1="0" x2="960" y2="630" stroke="white" stroke-width="1"/><line x1="1040" y1="0" x2="1040" y2="630" stroke="white" stroke-width="1"/><line x1="1120" y1="0" x2="1120" y2="630" stroke="white" stroke-width="1"/>
    <line x1="0" y1="0" x2="1200" y2="0" stroke="white" stroke-width="1"/><line x1="0" y1="80" x2="1200" y2="80" stroke="white" stroke-width="1"/><line x1="0" y1="160" x2="1200" y2="160" stroke="white" stroke-width="1"/><line x1="0" y1="240" x2="1200" y2="240" stroke="white" stroke-width="1"/><line x1="0" y1="320" x2="1200" y2="320" stroke="white" stroke-width="1"/><line x1="0" y1="400" x2="1200" y2="400" stroke="white" stroke-width="1"/><line x1="0" y1="480" x2="1200" y2="480" stroke="white" stroke-width="1"/><line x1="0" y1="560" x2="1200" y2="560" stroke="white" stroke-width="1"/>
  </g>

  <!-- Decorative -->
  <g>
    <circle cx="710" cy="154" r="52" fill="none" stroke="white" stroke-width="2" opacity="0.11"/>
    <circle cx="830" cy="273" r="88" fill="none" stroke="white" stroke-width="2" opacity="0.06"/>
    <circle cx="711" cy="224" r="36" fill="none" stroke="white" stroke-width="2" opacity="0.09"/>
    <rect x="1089" y="336" width="60" height="61" rx="4" fill="none" stroke="white" stroke-width="1.5" opacity="0.07" transform="rotate(39, 1119, 366)"/>
    <rect x="660" y="300" width="73" height="51" rx="4" fill="none" stroke="white" stroke-width="1.5" opacity="0.08" transform="rotate(30, 696, 325)"/>
    <circle cx="797" cy="328" r="4" fill="white" opacity="0.05"/>
    <circle cx="151" cy="442" r="4" fill="white" opacity="0.05"/>
    <circle cx="591" cy="243" r="3" fill="white" opacity="0.05"/>
    <circle cx="439" cy="204" r="4" fill="white" opacity="0.05"/>
    <circle cx="1038" cy="241" r="3" fill="white" opacity="0.05"/>
    <circle cx="911" cy="192" r="2" fill="white" opacity="0.05"/>
    <circle cx="756" cy="297" r="5" fill="white" opacity="0.05"/>
    <circle cx="472" cy="230" r="2" fill="white" opacity="0.05"/>
    <line x1="617" y1="190" x2="768" y2="341" stroke="white" stroke-width="1" opacity="0.07"/>
    <line x1="521" y1="67" x2="632" y2="178" stroke="white" stroke-width="1" opacity="0.06"/>
    <path d="M904 131 Q1004 51 1104 151 Q1204 251 1054 311" fill="none" stroke="white" stroke-width="1.5" opacity="0.04"/>
  </g>

  <!-- Bottom fade -->
  <rect y="410" width="1200" height="220" fill="url(#bottom-fade)"/>

  <!-- Badge -->
  <g transform="translate(60, 50)">
    <rect width="120" height="32" rx="16" fill="white" opacity="0.15"/>
    <text x="60" y="21" text-anchor="middle" font-family="system-ui, -apple-system, sans-serif" font-size="13" font-weight="600" fill="white" opacity="0.9">FindUtils</text>
  </g>

  <!-- Accent line -->
  <rect x="60" y="485" width="80" height="4" rx="2" fill="#d6d3d1" opacity="0.7"/>

  <!-- Title -->
  <text x="60" y="520" font-family="system-ui, -apple-system, sans-serif" font-size="48" font-weight="700" fill="white" letter-spacing="-1">
    Privacy Policy Checker
  </text>

  <!-- Subtitle -->
  <text x="60" y="570" font-family="system-ui, -apple-system, sans-serif" font-size="22" fill="white" opacity="0.8">
    Analyze privacy policies for data collection practices, user rights, security...
  </text>
</svg>