<svg xmlns="http://www.w3.org/2000/svg" width="1200" height="630" viewBox="0 0 1200 630">
  <defs>
    <linearGradient id="bg" x1="0%" y1="0%" x2="100%" y2="100%">
      <stop offset="0%" stop-color="#7c2d12"/>
      <stop offset="50%" stop-color="#c2410c"/>
      <stop offset="100%" stop-color="#f97316"/>
    </linearGradient>
    <radialGradient id="glow" cx="30%" cy="40%" r="70%">
      <stop offset="0%" stop-color="white" stop-opacity="0.08"/>
      <stop offset="100%" stop-color="white" stop-opacity="0"/>
    </radialGradient>
    <linearGradient id="bottom-fade" x1="0%" y1="0%" x2="0%" y2="100%">
      <stop offset="0%" stop-color="#7c2d12" stop-opacity="0"/>
      <stop offset="100%" stop-color="#7c2d12" stop-opacity="0.7"/>
    </linearGradient>
  </defs>

  <rect width="1200" height="630" rx="16" fill="url(#bg)"/>
  <rect width="1200" height="630" rx="16" fill="url(#glow)"/>

  <!-- Grid -->
  <g opacity="0.025">
    <line x1="0" y1="0" x2="0" y2="630" stroke="white" stroke-width="1"/><line x1="80" y1="0" x2="80" y2="630" stroke="white" stroke-width="1"/><line x1="160" y1="0" x2="160" y2="630" stroke="white" stroke-width="1"/><line x1="240" y1="0" x2="240" y2="630" stroke="white" stroke-width="1"/><line x1="320" y1="0" x2="320" y2="630" stroke="white" stroke-width="1"/><line x1="400" y1="0" x2="400" y2="630" stroke="white" stroke-width="1"/><line x1="480" y1="0" x2="480" y2="630" stroke="white" stroke-width="1"/><line x1="560" y1="0" x2="560" y2="630" stroke="white" stroke-width="1"/><line x1="640" y1="0" x2="640" y2="630" stroke="white" stroke-width="1"/><line x1="720" y1="0" x2="720" y2="630" stroke="white" stroke-width="1"/><line x1="800" y1="0" x2="800" y2="630" stroke="white" stroke-width="1"/><line x1="880" y1="0" x2="880" y2="630" stroke="white" stroke-width="1"/><line x1="960" y1="0" x2="960" y2="630" stroke="white" stroke-width="1"/><line x1="1040" y1="0" x2="1040" y2="630" stroke="white" stroke-width="1"/><line x1="1120" y1="0" x2="1120" y2="630" stroke="white" stroke-width="1"/>
    <line x1="0" y1="0" x2="1200" y2="0" stroke="white" stroke-width="1"/><line x1="0" y1="80" x2="1200" y2="80" stroke="white" stroke-width="1"/><line x1="0" y1="160" x2="1200" y2="160" stroke="white" stroke-width="1"/><line x1="0" y1="240" x2="1200" y2="240" stroke="white" stroke-width="1"/><line x1="0" y1="320" x2="1200" y2="320" stroke="white" stroke-width="1"/><line x1="0" y1="400" x2="1200" y2="400" stroke="white" stroke-width="1"/><line x1="0" y1="480" x2="1200" y2="480" stroke="white" stroke-width="1"/><line x1="0" y1="560" x2="1200" y2="560" stroke="white" stroke-width="1"/>
  </g>

  <!-- Decorative -->
  <g>
    <circle cx="734" cy="182" r="33" fill="none" stroke="white" stroke-width="2" opacity="0.08"/>
    <circle cx="1065" cy="239" r="88" fill="none" stroke="white" stroke-width="2" opacity="0.08"/>
    <circle cx="736" cy="113" r="55" fill="none" stroke="white" stroke-width="2" opacity="0.08"/>
    <rect x="964" y="299" width="92" height="111" rx="4" fill="none" stroke="white" stroke-width="1.5" opacity="0.05" transform="rotate(29, 1010, 354)"/>
    <rect x="995" y="257" width="116" height="100" rx="4" fill="none" stroke="white" stroke-width="1.5" opacity="0.06" transform="rotate(13, 1053, 307)"/>
    <circle cx="815" cy="374" r="5" fill="white" opacity="0.05"/>
    <circle cx="308" cy="315" r="5" fill="white" opacity="0.05"/>
    <circle cx="270" cy="361" r="2" fill="white" opacity="0.05"/>
    <circle cx="267" cy="98" r="4" fill="white" opacity="0.05"/>
    <circle cx="401" cy="408" r="3" fill="white" opacity="0.05"/>
    <circle cx="657" cy="308" r="5" fill="white" opacity="0.05"/>
    <circle cx="921" cy="446" r="4" fill="white" opacity="0.05"/>
    <circle cx="717" cy="143" r="3" fill="white" opacity="0.05"/>
    <line x1="989" y1="69" x2="1164" y2="244" stroke="white" stroke-width="1" opacity="0.05"/>
    <line x1="966" y1="213" x2="1069" y2="316" stroke="white" stroke-width="1" opacity="0.04"/>
    <path d="M606 381 Q706 301 806 401 Q906 501 756 561" fill="none" stroke="white" stroke-width="1.5" opacity="0.04"/>
  </g>

  <!-- Bottom fade -->
  <rect y="410" width="1200" height="220" fill="url(#bottom-fade)"/>

  <!-- Badge -->
  <g transform="translate(60, 50)">
    <rect width="120" height="32" rx="16" fill="white" opacity="0.15"/>
    <text x="60" y="21" text-anchor="middle" font-family="system-ui, -apple-system, sans-serif" font-size="13" font-weight="600" fill="white" opacity="0.9">FindUtils</text>
  </g>

  <!-- Accent line -->
  <rect x="60" y="450" width="80" height="4" rx="2" fill="#fdba74" opacity="0.7"/>

  <!-- Title -->
  <text x="60" y="520" font-family="system-ui, -apple-system, sans-serif" font-size="48" font-weight="700" fill="white" letter-spacing="-1">
    SHA256 Hash Generator
  </text>

  <!-- Subtitle -->
  <text x="60" y="570" font-family="system-ui, -apple-system, sans-serif" font-size="22" fill="white" opacity="0.8">
    Generate SHA-256, SHA-384, SHA-512, and SHA-1 hashes instantly in your browser.
  </text>
</svg>