<svg xmlns="http://www.w3.org/2000/svg" width="1200" height="630" viewBox="0 0 1200 630">
  <defs>
    <linearGradient id="bg" x1="0%" y1="0%" x2="100%" y2="100%">
      <stop offset="0%" stop-color="#0f766e"/>
      <stop offset="50%" stop-color="#0d9488"/>
      <stop offset="100%" stop-color="#2dd4bf"/>
    </linearGradient>
    <radialGradient id="glow" cx="30%" cy="40%" r="70%">
      <stop offset="0%" stop-color="white" stop-opacity="0.08"/>
      <stop offset="100%" stop-color="white" stop-opacity="0"/>
    </radialGradient>
    <linearGradient id="bottom-fade" x1="0%" y1="0%" x2="0%" y2="100%">
      <stop offset="0%" stop-color="#0f766e" stop-opacity="0"/>
      <stop offset="100%" stop-color="#0f766e" stop-opacity="0.7"/>
    </linearGradient>
  </defs>

  <rect width="1200" height="630" rx="16" fill="url(#bg)"/>
  <rect width="1200" height="630" rx="16" fill="url(#glow)"/>

  <!-- Grid -->
  <g opacity="0.025">
    <line x1="0" y1="0" x2="0" y2="630" stroke="white" stroke-width="1"/><line x1="80" y1="0" x2="80" y2="630" stroke="white" stroke-width="1"/><line x1="160" y1="0" x2="160" y2="630" stroke="white" stroke-width="1"/><line x1="240" y1="0" x2="240" y2="630" stroke="white" stroke-width="1"/><line x1="320" y1="0" x2="320" y2="630" stroke="white" stroke-width="1"/><line x1="400" y1="0" x2="400" y2="630" stroke="white" stroke-width="1"/><line x1="480" y1="0" x2="480" y2="630" stroke="white" stroke-width="1"/><line x1="560" y1="0" x2="560" y2="630" stroke="white" stroke-width="1"/><line x1="640" y1="0" x2="640" y2="630" stroke="white" stroke-width="1"/><line x1="720" y1="0" x2="720" y2="630" stroke="white" stroke-width="1"/><line x1="800" y1="0" x2="800" y2="630" stroke="white" stroke-width="1"/><line x1="880" y1="0" x2="880" y2="630" stroke="white" stroke-width="1"/><line x1="960" y1="0" x2="960" y2="630" stroke="white" stroke-width="1"/><line x1="1040" y1="0" x2="1040" y2="630" stroke="white" stroke-width="1"/><line x1="1120" y1="0" x2="1120" y2="630" stroke="white" stroke-width="1"/>
    <line x1="0" y1="0" x2="1200" y2="0" stroke="white" stroke-width="1"/><line x1="0" y1="80" x2="1200" y2="80" stroke="white" stroke-width="1"/><line x1="0" y1="160" x2="1200" y2="160" stroke="white" stroke-width="1"/><line x1="0" y1="240" x2="1200" y2="240" stroke="white" stroke-width="1"/><line x1="0" y1="320" x2="1200" y2="320" stroke="white" stroke-width="1"/><line x1="0" y1="400" x2="1200" y2="400" stroke="white" stroke-width="1"/><line x1="0" y1="480" x2="1200" y2="480" stroke="white" stroke-width="1"/><line x1="0" y1="560" x2="1200" y2="560" stroke="white" stroke-width="1"/>
  </g>

  <!-- Decorative -->
  <g>
    <circle cx="1025" cy="164" r="42" fill="none" stroke="white" stroke-width="2" opacity="0.07"/>
    <circle cx="1019" cy="358" r="79" fill="none" stroke="white" stroke-width="2" opacity="0.06"/>
    <circle cx="840" cy="306" r="109" fill="none" stroke="white" stroke-width="2" opacity="0.05"/>
    <rect x="808" y="343" width="109" height="79" rx="4" fill="none" stroke="white" stroke-width="1.5" opacity="0.04" transform="rotate(5, 862, 382)"/>
    <rect x="930" y="210" width="105" height="100" rx="4" fill="none" stroke="white" stroke-width="1.5" opacity="0.05" transform="rotate(29, 982, 260)"/>
    <circle cx="1097" cy="107" r="3" fill="white" opacity="0.05"/>
    <circle cx="431" cy="281" r="5" fill="white" opacity="0.05"/>
    <circle cx="717" cy="374" r="3" fill="white" opacity="0.05"/>
    <circle cx="105" cy="392" r="2" fill="white" opacity="0.05"/>
    <circle cx="156" cy="126" r="2" fill="white" opacity="0.05"/>
    <circle cx="245" cy="166" r="5" fill="white" opacity="0.05"/>
    <circle cx="560" cy="149" r="5" fill="white" opacity="0.05"/>
    <circle cx="315" cy="450" r="5" fill="white" opacity="0.05"/>
    <line x1="808" y1="186" x2="1066" y2="444" stroke="white" stroke-width="1" opacity="0.04"/>
    <line x1="542" y1="170" x2="680" y2="308" stroke="white" stroke-width="1" opacity="0.04"/>
    <path d="M996 130 Q1096 50 1196 150 Q1296 250 1146 310" fill="none" stroke="white" stroke-width="1.5" opacity="0.04"/>
  </g>

  <!-- Bottom fade -->
  <rect y="410" width="1200" height="220" fill="url(#bottom-fade)"/>

  <!-- Badge -->
  <g transform="translate(60, 50)">
    <rect width="120" height="32" rx="16" fill="white" opacity="0.15"/>
    <text x="60" y="21" text-anchor="middle" font-family="system-ui, -apple-system, sans-serif" font-size="13" font-weight="600" fill="white" opacity="0.9">FindUtils</text>
  </g>

  <!-- Accent line -->
  <rect x="60" y="450" width="80" height="4" rx="2" fill="#5eead4" opacity="0.7"/>

  <!-- Title -->
  <text x="60" y="520" font-family="system-ui, -apple-system, sans-serif" font-size="48" font-weight="700" fill="white" letter-spacing="-1">
    Unit Converter
  </text>

  <!-- Subtitle -->
  <text x="60" y="570" font-family="system-ui, -apple-system, sans-serif" font-size="22" fill="white" opacity="0.8">
    Free online unit converter - convert length, weight, temperature, volume, spe...
  </text>
</svg>