<svg xmlns="http://www.w3.org/2000/svg" width="1200" height="630" viewBox="0 0 1200 630">
  <defs>
    <linearGradient id="bg" x1="0%" y1="0%" x2="100%" y2="100%">
      <stop offset="0%" stop-color="#7c2d12"/>
      <stop offset="50%" stop-color="#c2410c"/>
      <stop offset="100%" stop-color="#f97316"/>
    </linearGradient>
    <radialGradient id="glow" cx="30%" cy="40%" r="70%">
      <stop offset="0%" stop-color="white" stop-opacity="0.08"/>
      <stop offset="100%" stop-color="white" stop-opacity="0"/>
    </radialGradient>
    <linearGradient id="bottom-fade" x1="0%" y1="0%" x2="0%" y2="100%">
      <stop offset="0%" stop-color="#7c2d12" stop-opacity="0"/>
      <stop offset="100%" stop-color="#7c2d12" stop-opacity="0.7"/>
    </linearGradient>
  </defs>

  <rect width="1200" height="630" rx="16" fill="url(#bg)"/>
  <rect width="1200" height="630" rx="16" fill="url(#glow)"/>

  <!-- Grid -->
  <g opacity="0.025">
    <line x1="0" y1="0" x2="0" y2="630" stroke="white" stroke-width="1"/><line x1="80" y1="0" x2="80" y2="630" stroke="white" stroke-width="1"/><line x1="160" y1="0" x2="160" y2="630" stroke="white" stroke-width="1"/><line x1="240" y1="0" x2="240" y2="630" stroke="white" stroke-width="1"/><line x1="320" y1="0" x2="320" y2="630" stroke="white" stroke-width="1"/><line x1="400" y1="0" x2="400" y2="630" stroke="white" stroke-width="1"/><line x1="480" y1="0" x2="480" y2="630" stroke="white" stroke-width="1"/><line x1="560" y1="0" x2="560" y2="630" stroke="white" stroke-width="1"/><line x1="640" y1="0" x2="640" y2="630" stroke="white" stroke-width="1"/><line x1="720" y1="0" x2="720" y2="630" stroke="white" stroke-width="1"/><line x1="800" y1="0" x2="800" y2="630" stroke="white" stroke-width="1"/><line x1="880" y1="0" x2="880" y2="630" stroke="white" stroke-width="1"/><line x1="960" y1="0" x2="960" y2="630" stroke="white" stroke-width="1"/><line x1="1040" y1="0" x2="1040" y2="630" stroke="white" stroke-width="1"/><line x1="1120" y1="0" x2="1120" y2="630" stroke="white" stroke-width="1"/>
    <line x1="0" y1="0" x2="1200" y2="0" stroke="white" stroke-width="1"/><line x1="0" y1="80" x2="1200" y2="80" stroke="white" stroke-width="1"/><line x1="0" y1="160" x2="1200" y2="160" stroke="white" stroke-width="1"/><line x1="0" y1="240" x2="1200" y2="240" stroke="white" stroke-width="1"/><line x1="0" y1="320" x2="1200" y2="320" stroke="white" stroke-width="1"/><line x1="0" y1="400" x2="1200" y2="400" stroke="white" stroke-width="1"/><line x1="0" y1="480" x2="1200" y2="480" stroke="white" stroke-width="1"/><line x1="0" y1="560" x2="1200" y2="560" stroke="white" stroke-width="1"/>
  </g>

  <!-- Decorative -->
  <g>
    <circle cx="976" cy="392" r="54" fill="none" stroke="white" stroke-width="2" opacity="0.10"/>
    <circle cx="1049" cy="169" r="82" fill="none" stroke="white" stroke-width="2" opacity="0.09"/>
    <circle cx="709" cy="159" r="85" fill="none" stroke="white" stroke-width="2" opacity="0.07"/>
    <rect x="775" y="162" width="80" height="98" rx="4" fill="none" stroke="white" stroke-width="1.5" opacity="0.06" transform="rotate(28, 815, 211)"/>
    <rect x="867" y="350" width="101" height="58" rx="4" fill="none" stroke="white" stroke-width="1.5" opacity="0.04" transform="rotate(14, 917, 379)"/>
    <circle cx="315" cy="303" r="3" fill="white" opacity="0.05"/>
    <circle cx="912" cy="110" r="2" fill="white" opacity="0.05"/>
    <circle cx="1045" cy="249" r="4" fill="white" opacity="0.05"/>
    <circle cx="478" cy="99" r="4" fill="white" opacity="0.05"/>
    <circle cx="728" cy="206" r="5" fill="white" opacity="0.05"/>
    <circle cx="282" cy="275" r="4" fill="white" opacity="0.05"/>
    <circle cx="543" cy="332" r="2" fill="white" opacity="0.05"/>
    <circle cx="1079" cy="298" r="2" fill="white" opacity="0.05"/>
    <line x1="755" y1="70" x2="944" y2="259" stroke="white" stroke-width="1" opacity="0.03"/>
    <line x1="1067" y1="155" x2="1310" y2="398" stroke="white" stroke-width="1" opacity="0.04"/>
    <path d="M732 147 Q832 67 932 167 Q1032 267 882 327" fill="none" stroke="white" stroke-width="1.5" opacity="0.04"/>
  </g>

  <!-- Bottom fade -->
  <rect y="410" width="1200" height="220" fill="url(#bottom-fade)"/>

  <!-- Badge -->
  <g transform="translate(60, 50)">
    <rect width="120" height="32" rx="16" fill="white" opacity="0.15"/>
    <text x="60" y="21" text-anchor="middle" font-family="system-ui, -apple-system, sans-serif" font-size="13" font-weight="600" fill="white" opacity="0.9">FindUtils</text>
  </g>

  <!-- Accent line -->
  <rect x="60" y="485" width="80" height="4" rx="2" fill="#fdba74" opacity="0.7"/>

  <!-- Title -->
  <text x="60" y="520" font-family="system-ui, -apple-system, sans-serif" font-size="48" font-weight="700" fill="white" letter-spacing="-1">
    UUID Generator
  </text>

  <!-- Subtitle -->
  <text x="60" y="570" font-family="system-ui, -apple-system, sans-serif" font-size="22" fill="white" opacity="0.8">
    Generate UUIDs instantly in your browser.
  </text>
</svg>