<svg xmlns="http://www.w3.org/2000/svg" width="1200" height="630" viewBox="0 0 1200 630">
  <defs>
    <linearGradient id="bg" x1="0%" y1="0%" x2="100%" y2="100%">
      <stop offset="0%" stop-color="#365314"/>
      <stop offset="50%" stop-color="#4d7c0f"/>
      <stop offset="100%" stop-color="#84cc16"/>
    </linearGradient>
    <radialGradient id="glow" cx="30%" cy="40%" r="70%">
      <stop offset="0%" stop-color="white" stop-opacity="0.08"/>
      <stop offset="100%" stop-color="white" stop-opacity="0"/>
    </radialGradient>
    <linearGradient id="bottom-fade" x1="0%" y1="0%" x2="0%" y2="100%">
      <stop offset="0%" stop-color="#365314" stop-opacity="0"/>
      <stop offset="100%" stop-color="#365314" stop-opacity="0.7"/>
    </linearGradient>
  </defs>

  <rect width="1200" height="630" rx="16" fill="url(#bg)"/>
  <rect width="1200" height="630" rx="16" fill="url(#glow)"/>

  <!-- Grid -->
  <g opacity="0.025">
    <line x1="0" y1="0" x2="0" y2="630" stroke="white" stroke-width="1"/><line x1="80" y1="0" x2="80" y2="630" stroke="white" stroke-width="1"/><line x1="160" y1="0" x2="160" y2="630" stroke="white" stroke-width="1"/><line x1="240" y1="0" x2="240" y2="630" stroke="white" stroke-width="1"/><line x1="320" y1="0" x2="320" y2="630" stroke="white" stroke-width="1"/><line x1="400" y1="0" x2="400" y2="630" stroke="white" stroke-width="1"/><line x1="480" y1="0" x2="480" y2="630" stroke="white" stroke-width="1"/><line x1="560" y1="0" x2="560" y2="630" stroke="white" stroke-width="1"/><line x1="640" y1="0" x2="640" y2="630" stroke="white" stroke-width="1"/><line x1="720" y1="0" x2="720" y2="630" stroke="white" stroke-width="1"/><line x1="800" y1="0" x2="800" y2="630" stroke="white" stroke-width="1"/><line x1="880" y1="0" x2="880" y2="630" stroke="white" stroke-width="1"/><line x1="960" y1="0" x2="960" y2="630" stroke="white" stroke-width="1"/><line x1="1040" y1="0" x2="1040" y2="630" stroke="white" stroke-width="1"/><line x1="1120" y1="0" x2="1120" y2="630" stroke="white" stroke-width="1"/>
    <line x1="0" y1="0" x2="1200" y2="0" stroke="white" stroke-width="1"/><line x1="0" y1="80" x2="1200" y2="80" stroke="white" stroke-width="1"/><line x1="0" y1="160" x2="1200" y2="160" stroke="white" stroke-width="1"/><line x1="0" y1="240" x2="1200" y2="240" stroke="white" stroke-width="1"/><line x1="0" y1="320" x2="1200" y2="320" stroke="white" stroke-width="1"/><line x1="0" y1="400" x2="1200" y2="400" stroke="white" stroke-width="1"/><line x1="0" y1="480" x2="1200" y2="480" stroke="white" stroke-width="1"/><line x1="0" y1="560" x2="1200" y2="560" stroke="white" stroke-width="1"/>
  </g>

  <!-- Decorative -->
  <g>
    <circle cx="953" cy="348" r="57" fill="none" stroke="white" stroke-width="2" opacity="0.08"/>
    <circle cx="1085" cy="105" r="75" fill="none" stroke="white" stroke-width="2" opacity="0.06"/>
    <circle cx="1079" cy="421" r="69" fill="none" stroke="white" stroke-width="2" opacity="0.08"/>
    <rect x="692" y="170" width="54" height="81" rx="4" fill="none" stroke="white" stroke-width="1.5" opacity="0.08" transform="rotate(40, 719, 210)"/>
    <rect x="924" y="364" width="106" height="109" rx="4" fill="none" stroke="white" stroke-width="1.5" opacity="0.04" transform="rotate(38, 977, 418)"/>
    <circle cx="219" cy="252" r="3" fill="white" opacity="0.05"/>
    <circle cx="383" cy="144" r="3" fill="white" opacity="0.05"/>
    <circle cx="812" cy="112" r="2" fill="white" opacity="0.05"/>
    <circle cx="668" cy="385" r="2" fill="white" opacity="0.05"/>
    <circle cx="126" cy="412" r="3" fill="white" opacity="0.05"/>
    <circle cx="990" cy="268" r="2" fill="white" opacity="0.05"/>
    <circle cx="349" cy="263" r="2" fill="white" opacity="0.05"/>
    <circle cx="631" cy="236" r="2" fill="white" opacity="0.05"/>
    <line x1="687" y1="105" x2="840" y2="258" stroke="white" stroke-width="1" opacity="0.05"/>
    <line x1="1033" y1="66" x2="1158" y2="191" stroke="white" stroke-width="1" opacity="0.07"/>
    <path d="M882 167 Q982 87 1082 187 Q1182 287 1032 347" fill="none" stroke="white" stroke-width="1.5" opacity="0.04"/>
  </g>

  <!-- Bottom fade -->
  <rect y="410" width="1200" height="220" fill="url(#bottom-fade)"/>

  <!-- Badge -->
  <g transform="translate(60, 50)">
    <rect width="120" height="32" rx="16" fill="white" opacity="0.15"/>
    <text x="60" y="21" text-anchor="middle" font-family="system-ui, -apple-system, sans-serif" font-size="13" font-weight="600" fill="white" opacity="0.9">FindUtils</text>
  </g>

  <!-- Accent line -->
  <rect x="60" y="450" width="80" height="4" rx="2" fill="#bef264" opacity="0.7"/>

  <!-- Title -->
  <text x="60" y="520" font-family="system-ui, -apple-system, sans-serif" font-size="48" font-weight="700" fill="white" letter-spacing="-1">
    Windows Update Settings Generator
  </text>

  <!-- Subtitle -->
  <text x="60" y="570" font-family="system-ui, -apple-system, sans-serif" font-size="22" fill="white" opacity="0.8">
    Generate .
  </text>
</svg>