<svg xmlns="http://www.w3.org/2000/svg" width="1200" height="630" viewBox="0 0 1200 630">
  <defs>
    <linearGradient id="bg" x1="0%" y1="0%" x2="100%" y2="100%">
      <stop offset="0%" stop-color="#365314"/>
      <stop offset="50%" stop-color="#4d7c0f"/>
      <stop offset="100%" stop-color="#84cc16"/>
    </linearGradient>
    <radialGradient id="glow" cx="30%" cy="40%" r="70%">
      <stop offset="0%" stop-color="white" stop-opacity="0.08"/>
      <stop offset="100%" stop-color="white" stop-opacity="0"/>
    </radialGradient>
    <linearGradient id="bottom-fade" x1="0%" y1="0%" x2="0%" y2="100%">
      <stop offset="0%" stop-color="#365314" stop-opacity="0"/>
      <stop offset="100%" stop-color="#365314" stop-opacity="0.7"/>
    </linearGradient>
  </defs>

  <rect width="1200" height="630" rx="16" fill="url(#bg)"/>
  <rect width="1200" height="630" rx="16" fill="url(#glow)"/>

  <!-- Grid -->
  <g opacity="0.025">
    <line x1="0" y1="0" x2="0" y2="630" stroke="white" stroke-width="1"/><line x1="80" y1="0" x2="80" y2="630" stroke="white" stroke-width="1"/><line x1="160" y1="0" x2="160" y2="630" stroke="white" stroke-width="1"/><line x1="240" y1="0" x2="240" y2="630" stroke="white" stroke-width="1"/><line x1="320" y1="0" x2="320" y2="630" stroke="white" stroke-width="1"/><line x1="400" y1="0" x2="400" y2="630" stroke="white" stroke-width="1"/><line x1="480" y1="0" x2="480" y2="630" stroke="white" stroke-width="1"/><line x1="560" y1="0" x2="560" y2="630" stroke="white" stroke-width="1"/><line x1="640" y1="0" x2="640" y2="630" stroke="white" stroke-width="1"/><line x1="720" y1="0" x2="720" y2="630" stroke="white" stroke-width="1"/><line x1="800" y1="0" x2="800" y2="630" stroke="white" stroke-width="1"/><line x1="880" y1="0" x2="880" y2="630" stroke="white" stroke-width="1"/><line x1="960" y1="0" x2="960" y2="630" stroke="white" stroke-width="1"/><line x1="1040" y1="0" x2="1040" y2="630" stroke="white" stroke-width="1"/><line x1="1120" y1="0" x2="1120" y2="630" stroke="white" stroke-width="1"/>
    <line x1="0" y1="0" x2="1200" y2="0" stroke="white" stroke-width="1"/><line x1="0" y1="80" x2="1200" y2="80" stroke="white" stroke-width="1"/><line x1="0" y1="160" x2="1200" y2="160" stroke="white" stroke-width="1"/><line x1="0" y1="240" x2="1200" y2="240" stroke="white" stroke-width="1"/><line x1="0" y1="320" x2="1200" y2="320" stroke="white" stroke-width="1"/><line x1="0" y1="400" x2="1200" y2="400" stroke="white" stroke-width="1"/><line x1="0" y1="480" x2="1200" y2="480" stroke="white" stroke-width="1"/><line x1="0" y1="560" x2="1200" y2="560" stroke="white" stroke-width="1"/>
  </g>

  <!-- Decorative -->
  <g>
    <circle cx="1064" cy="241" r="81" fill="none" stroke="white" stroke-width="2" opacity="0.06"/>
    <circle cx="1050" cy="397" r="54" fill="none" stroke="white" stroke-width="2" opacity="0.09"/>
    <circle cx="1010" cy="420" r="31" fill="none" stroke="white" stroke-width="2" opacity="0.11"/>
    <rect x="625" y="283" width="86" height="101" rx="4" fill="none" stroke="white" stroke-width="1.5" opacity="0.07" transform="rotate(11, 668, 333)"/>
    <rect x="915" y="278" width="105" height="43" rx="4" fill="none" stroke="white" stroke-width="1.5" opacity="0.05" transform="rotate(22, 967, 299)"/>
    <circle cx="759" cy="390" r="5" fill="white" opacity="0.05"/>
    <circle cx="1003" cy="318" r="4" fill="white" opacity="0.05"/>
    <circle cx="684" cy="383" r="2" fill="white" opacity="0.05"/>
    <circle cx="881" cy="317" r="2" fill="white" opacity="0.05"/>
    <circle cx="414" cy="156" r="2" fill="white" opacity="0.05"/>
    <circle cx="451" cy="209" r="4" fill="white" opacity="0.05"/>
    <circle cx="778" cy="412" r="5" fill="white" opacity="0.05"/>
    <circle cx="853" cy="452" r="5" fill="white" opacity="0.05"/>
    <line x1="1051" y1="197" x2="1197" y2="343" stroke="white" stroke-width="1" opacity="0.06"/>
    <line x1="550" y1="234" x2="690" y2="374" stroke="white" stroke-width="1" opacity="0.07"/>
    <path d="M865 277 Q965 197 1065 297 Q1165 397 1015 457" fill="none" stroke="white" stroke-width="1.5" opacity="0.04"/>
  </g>

  <!-- Bottom fade -->
  <rect y="410" width="1200" height="220" fill="url(#bottom-fade)"/>

  <!-- Badge -->
  <g transform="translate(60, 50)">
    <rect width="120" height="32" rx="16" fill="white" opacity="0.15"/>
    <text x="60" y="21" text-anchor="middle" font-family="system-ui, -apple-system, sans-serif" font-size="13" font-weight="600" fill="white" opacity="0.9">FindUtils</text>
  </g>

  <!-- Accent line -->
  <rect x="60" y="450" width="80" height="4" rx="2" fill="#bef264" opacity="0.7"/>

  <!-- Title -->
  <text x="60" y="520" font-family="system-ui, -apple-system, sans-serif" font-size="48" font-weight="700" fill="white" letter-spacing="-1">
    Worksheet Generator
  </text>

  <!-- Subtitle -->
  <text x="60" y="570" font-family="system-ui, -apple-system, sans-serif" font-size="22" fill="white" opacity="0.8">
    Generate free printable math and educational worksheets for students and teac...
  </text>
</svg>