<svg xmlns="http://www.w3.org/2000/svg" viewBox="0 0 512 512" width="512" height="512">
  <defs>
    <linearGradient id="bg" x1="0" y1="0" x2="1" y2="1">
      <stop offset="0%" stop-color="#0284c7"/>
      <stop offset="100%" stop-color="#38bdf8"/>
    </linearGradient>
  </defs>
  <rect width="512" height="512" rx="112" fill="url(#bg)"/>
  <g transform="translate(115,115) scale(11.75)" fill="none" stroke="white" stroke-width="2" stroke-linecap="round" stroke-linejoin="round">
    <path d="M20 21v-8a2 2 0 0 0-2-2H6a2 2 0 0 0-2 2v8"/><path d="M4 16s.5-1 2-1 2.5 2 4 2 2.5-2 4-2 2.5 2 4 2 2-1 2-1"/><path d="M2 21h20"/><path d="M7 8v3"/><path d="M12 8v3"/><path d="M17 8v3"/><path d="M7 4h0.01"/><path d="M12 4h0.01"/><path d="M17 4h0.01"/>
  </g>
</svg>