<svg xmlns="http://www.w3.org/2000/svg" viewBox="0 0 512 512" width="512" height="512">
  <defs>
    <linearGradient id="bg" x1="0" y1="0" x2="1" y2="1">
      <stop offset="0%" stop-color="#0284c7"/>
      <stop offset="100%" stop-color="#38bdf8"/>
    </linearGradient>
  </defs>
  <rect width="512" height="512" rx="112" fill="url(#bg)"/>
  <g transform="translate(115,115) scale(11.75)" fill="none" stroke="white" stroke-width="2" stroke-linecap="round" stroke-linejoin="round">
    <path d="m16 16 3-8 3 8c-.87.65-1.92 1-3 1s-2.13-.35-3-1Z"/><path d="m2 16 3-8 3 8c-.87.65-1.92 1-3 1s-2.13-.35-3-1Z"/><path d="M7 21h10"/><path d="M12 3v18"/><path d="M3 7h2c2 0 5-1 7-2 2 1 5 2 7 2h2"/>
  </g>
</svg>