<svg xmlns="http://www.w3.org/2000/svg" viewBox="0 0 512 512" width="512" height="512">
  <defs>
    <linearGradient id="bg" x1="0" y1="0" x2="1" y2="1">
      <stop offset="0%" stop-color="#c026d3"/>
      <stop offset="100%" stop-color="#e879f9"/>
    </linearGradient>
  </defs>
  <rect width="512" height="512" rx="113" fill="url(#bg)"/>
  <path d="M256 152c-64 0-112 48-112 104s48 104 112 104c16 0 24-8 24-20 0-8-4-16-4-24 0-12 8-20 24-20h28c36 0 64-28 64-64 0-48-60-80-136-80z" fill="none" stroke="white" stroke-width="20"/><circle cx="208" cy="232" r="14" fill="white"/><circle cx="248" cy="200" r="14" fill="white"/><circle cx="296" cy="216" r="14" fill="white"/>
</svg>